<svg xmlns="http://www.w3.org/2000/svg" xmlns:xlink="http://www.w3.org/1999/xlink" xmlns:inkscape="http://www.inkscape.org/namespaces/inkscape" version="1.1" width="1045.731" height="691.10879" viewBox="0 0 1045.731 691.10879">
<defs>
<clipPath id="clip_0">
<path transform="matrix(1,0,0,-1,0,691.10879)" d="M94.46562 39.66875H1011.86959V683.90878H94.46562Z"/>
</clipPath>
<clipPath id="clip_1">
<path transform="matrix(1,0,0,-1,0,691.10879)" d="M94.46562 39.66875H1011.86959V683.90878H94.46562Z"/>
</clipPath>
<clipPath id="clip_2">
<path transform="matrix(1,0,0,-1,0,691.10879)" d="M94.46562 39.66875H1011.86959V683.90878H94.46562Z"/>
</clipPath>
<clipPath id="clip_3">
<path transform="matrix(1,0,0,-1,0,691.10879)" d="M94.46562 39.66875H1011.86959V683.90878H94.46562Z"/>
</clipPath>
<clipPath id="clip_4">
<path transform="matrix(1,0,0,-1,0,691.10879)" d="M94.46562 39.66875H1011.86959V683.90878H94.46562Z"/>
</clipPath>
<clipPath id="clip_5">
<path transform="matrix(1,0,0,-1,0,691.10879)" d="M94.46562 39.66875H1011.86959V683.90878H94.46562Z"/>
</clipPath>
<clipPath id="clip_6">
<path transform="matrix(1,0,0,-1,0,691.10879)" d="M94.46562 39.66875H1011.86959V683.90878H94.46562Z"/>
</clipPath>
<clipPath id="clip_7">
<path transform="matrix(1,0,0,-1,0,691.10879)" d="M94.46562 39.66875H1011.86959V683.90878H94.46562Z"/>
</clipPath>
<clipPath id="clip_8">
<path transform="matrix(1,0,0,-1,0,691.10879)" d="M94.46562 39.66875H1011.86959V683.90878H94.46562Z"/>
</clipPath>
<clipPath id="clip_9">
<path transform="matrix(1,0,0,-1,0,691.10879)" d="M94.46562 39.66875H1011.86959V683.90878H94.46562Z"/>
</clipPath>
<clipPath id="clip_10">
<path transform="matrix(1,0,0,-1,0,691.10879)" d="M94.46562 39.66875H1011.86959V683.90878H94.46562Z"/>
</clipPath>
<clipPath id="clip_11">
<path transform="matrix(1,0,0,-1,0,691.10879)" d="M94.46562 39.66875H1011.86959V683.90878H94.46562Z"/>
</clipPath>
<clipPath id="clip_12">
<path transform="matrix(1,0,0,-1,0,691.10879)" d="M94.46562 39.66875H1011.86959V683.90878H94.46562Z"/>
</clipPath>
<clipPath id="clip_13">
<path transform="matrix(1,0,0,-1,0,691.10879)" d="M94.46562 39.66875H1011.86959V683.90878H94.46562Z"/>
</clipPath>
<clipPath id="clip_14">
<path transform="matrix(1,0,0,-1,0,691.10879)" d="M94.46562 39.66875H1011.86959V683.90878H94.46562Z"/>
</clipPath>
<clipPath id="clip_15">
<path transform="matrix(1,0,0,-1,0,691.10879)" d="M94.46562 39.66875H1011.86959V683.90878H94.46562Z"/>
</clipPath>
<clipPath id="clip_16">
<path transform="matrix(1,0,0,-1,0,691.10879)" d="M94.46562 39.66875H1011.86959V683.90878H94.46562Z"/>
</clipPath>
<clipPath id="clip_17">
<path transform="matrix(1,0,0,-1,0,691.10879)" d="M94.46562 39.66875H1011.86959V683.90878H94.46562Z"/>
</clipPath>
<clipPath id="clip_18">
<path transform="matrix(1,0,0,-1,0,691.10879)" d="M94.46562 39.66875H1011.86959V683.90878H94.46562Z"/>
</clipPath>
<clipPath id="clip_19">
<path transform="matrix(1,0,0,-1,0,691.10879)" d="M94.46562 39.66875H1011.86959V683.90878H94.46562Z"/>
</clipPath>
<clipPath id="clip_20">
<path transform="matrix(1,0,0,-1,0,691.10879)" d="M94.46562 39.66875H1011.86959V683.90878H94.46562Z"/>
</clipPath>
<clipPath id="clip_21">
<path transform="matrix(1,0,0,-1,0,691.10879)" d="M94.46562 39.66875H1011.86959V683.90878H94.46562Z"/>
</clipPath>
<clipPath id="clip_22">
<path transform="matrix(1,0,0,-1,0,691.10879)" d="M94.46562 39.66875H1011.86959V683.90878H94.46562Z"/>
</clipPath>
<clipPath id="clip_23">
<path transform="matrix(1,0,0,-1,0,691.10879)" d="M94.46562 39.66875H1011.86959V683.90878H94.46562Z"/>
</clipPath>
</defs>
<path transform="matrix(1,0,0,-1,0,691.10879)" d="M0 0H1045.731V691.10879H0Z" fill="#ffffff"/>
<path transform="matrix(1,0,0,-1,0,691.10879)" d="M94.46562 39.66875H1011.86959V683.90878H94.46562Z" fill="#ffffff"/>
<path transform="matrix(1,0,0,-1,0,691.10879)" d="M239.63242 39.66875V36.16875"/>
<path transform="matrix(1,0,0,-1,0,691.10879)" stroke-width=".8" stroke-linecap="butt" stroke-linejoin="round" fill="none" stroke="#000000" d="M239.63242 39.66875V36.16875"/>
<path transform="matrix(.028,0,0,-.028,95.01523,677.8619)" d="M74 425 22 437V459H151L152 432C165 444 183 453 206 460 229 467 253 471 277 471 335 471 381 450 413 410 445 369 461 311 461 235 461 157 443 96 408 54 373 12 323-9 257-9 220-9 185-5 152 1 154-21 155-39 155-53V-177L235-189V-212H16V-189L74-177V425ZM373 235C373 297 362 344 342 374 322 404 291 420 250 420 212 420 180 414 155 404V37C183 31 215 29 250 29 332 29 373 97 373 235Z"/>
<text fill-opacity="0" xml:space="preserve" transform="matrix(1 0 -0 1 95.01523 677.8619)" font-size="28" font-family="LiberationSerif"><tspan y="0" x="0">p</tspan></text>
<path transform="matrix(.028,0,0,-.028,109.01523,677.8619)" d="M462 232C462 71 390-9 247-9 178-9 126 11 91 52 55 93 38 153 38 232 38 309 55 368 91 409 126 450 179 471 251 471 320 471 372 451 408 411 444 371 462 311 462 232ZM374 232C374 302 363 352 343 384 323 416 291 432 247 432 204 432 173 416 154 386 135 356 126 304 126 232 126 158 135 105 155 75 174 44 205 29 247 29 290 29 322 45 343 77 363 109 374 160 374 232Z"/>
<text fill-opacity="0" xml:space="preserve" transform="matrix(1 0 -0 1 95.01523 677.8619)" font-size="28" font-family="LiberationSerif"><tspan y="0" x="14">o</tspan></text>
<path transform="matrix(.028,0,0,-.028,123.01523,677.8619)" d="M185 609C185 594 179 581 169 571 159 561 146 556 132 556 117 556 104 561 94 571 84 581 79 594 79 609 79 623 84 636 94 646 104 656 117 662 132 662 146 662 159 656 169 646 179 636 185 623 185 609ZM180 34 259 22V0H21V22L99 34V425L34 437V459H180V34Z"/>
<text fill-opacity="0" xml:space="preserve" transform="matrix(1 0 -0 1 95.01523 677.8619)" font-size="28" font-family="LiberationSerif"><tspan y="0" x="28">i</tspan></text>
<path transform="matrix(.028,0,0,-.028,130.79923,677.8619)" d="M158 422C183 436 210 447 238 457 266 466 290 471 309 471 349 471 379 459 399 436 419 413 429 380 429 336V34L485 22V0H287V22L348 34V327C348 354 341 375 328 391 315 406 295 414 267 414 237 414 201 409 159 400V34L221 22V0H23V22L78 34V425L23 437V459H154L158 422Z"/>
<text fill-opacity="0" xml:space="preserve" transform="matrix(1 0 -0 1 95.01523 677.8619)" font-size="28" font-family="LiberationSerif"><tspan y="0" x="35.784">n</tspan></text>
<path transform="matrix(.028,0,0,-.028,144.79923,677.8619)" d="M163-9C131-9 108 0 93 18 77 36 70 62 70 96V418H10V440L71 459 120 563H151V459H256V418H151V105C151 83 155 67 165 57 175 46 187 41 203 41 221 41 244 43 272 49V17C260 9 244 2 222-2 200-6 181-9 163-9Z"/>
<text fill-opacity="0" xml:space="preserve" transform="matrix(1 0 -0 1 95.01523 677.8619)" font-size="28" font-family="LiberationSerif"><tspan y="0" x="49.784">t</tspan></text>
<path transform="matrix(.028,0,0,-.028,152.58322,677.8619)" d="M159 422C183 436 209 447 237 457 264 466 288 471 309 471 331 471 352 466 371 458 390 450 404 436 414 418 439 432 468 444 502 455 536 465 564 471 586 471 664 471 703 426 703 336V34L762 22V0H554V22L622 34V327C622 383 596 411 544 411 535 411 525 410 514 409 503 407 492 406 481 404 469 402 458 401 448 399 438 397 429 395 423 394 428 376 431 357 431 336V34L500 22V0H282V22L350 34V327C350 354 343 375 329 389 315 403 295 411 267 411 238 411 202 406 160 397V34L229 22V0H21V22L79 34V425L21 437V459H155L159 422Z"/>
<text fill-opacity="0" xml:space="preserve" transform="matrix(1 0 -0 1 95.01523 677.8619)" font-size="28" font-family="LiberationSerif"><tspan y="0" x="57.568">m</tspan></text>
<path transform="matrix(.028,0,0,-.028,174.36724,677.8619)" d="M227 469C277 469 313 458 337 438 361 418 373 386 373 344V34L430 22V0H304L295 46C257 9 210-9 153-9 74-9 35 36 35 127 35 157 41 183 53 203 65 223 84 238 110 249 136 259 173 265 223 266L292 268V340C292 371 286 394 274 409 262 424 245 432 221 432 188 432 158 424 132 409L115 352H88V452C140 463 187 469 227 469ZM292 234 228 232C184 230 155 221 139 206 123 191 116 166 116 130 116 72 139 44 186 44 208 44 227 46 243 51 259 56 276 63 292 71V234Z"/>
<text fill-opacity="0" xml:space="preserve" transform="matrix(1 0 -0 1 95.01523 677.8619)" font-size="28" font-family="LiberationSerif"><tspan y="0" x="79.352008">a</tspan></text>
<path transform="matrix(.028,0,0,-.028,186.79923,677.8619)" d="M27 0V22L279 420H171C153 420 135 418 118 415 101 412 89 408 83 403L68 337H45V459H384V435L132 39H266C284 39 304 41 324 45 344 49 359 55 368 62L393 158H416L404 0H27Z"/>
<text fill-opacity="0" xml:space="preserve" transform="matrix(1 0 -0 1 95.01523 677.8619)" font-size="28" font-family="LiberationSerif"><tspan y="0" x="91.784008">z</tspan></text>
<path transform="matrix(.028,0,0,-.028,199.23123,677.8619)" d="M127 231V222C127 177 132 142 142 117 152 92 167 73 188 60 208 47 235 41 269 41 286 41 307 42 331 45 355 48 375 51 391 55V28C375 18 354 9 327 2 300-5 273-9 245-9 173-9 121 10 88 48 55 86 39 147 39 233 39 313 55 372 89 412 123 451 171 471 233 471 350 471 409 404 409 271V231H127ZM233 432C199 432 173 418 155 391 137 363 128 323 128 270H324C324 328 316 369 301 394 286 419 263 432 233 432Z"/>
<text fill-opacity="0" xml:space="preserve" transform="matrix(1 0 -0 1 95.01523 677.8619)" font-size="28" font-family="LiberationSerif"><tspan y="0" x="104.216">e</tspan></text>
<path transform="matrix(.028,0,0,-.028,211.66324,677.8619)" d="M37 198V273H297V198H37Z"/>
<text fill-opacity="0" xml:space="preserve" transform="matrix(1 0 -0 1 95.01523 677.8619)" font-size="28" font-family="LiberationSerif"><tspan y="0" x="116.648">-</tspan></text>
<path transform="matrix(.028,0,0,-.028,220.98723,677.8619)" d="M425 314C425 261 409 221 377 194 345 167 300 154 241 154 214 154 189 156 167 161L136 97C137 91 143 86 155 81 167 76 181 74 199 74H335C384 74 421 63 445 42 469 20 481-8 481-46 481-80 471-109 452-135 433-160 405-180 368-194 331-208 287-215 235-215 172-215 124-205 92-186 59-166 43-139 43-104 43-86 48-69 60-53 72-36 93-17 125 5 106 11 90 21 78 36 65 51 59 67 59 85L136 172C84 196 59 243 59 314 59 364 74 402 106 430 138 457 184 471 245 471 257 471 272 469 291 467 310 465 325 462 335 459L443 513 460 492 392 422C414 397 425 361 425 314ZM405-61C405-42 399-27 388-17 376-7 359-2 336-2H158C144-14 133-29 125-47 116-65 112-81 112-97 112-125 122-145 142-157 162-169 193-176 235-176 289-176 330-165 360-145 390-125 405-97 405-61ZM242 191C277 191 302 201 317 221 332 241 340 272 340 314 340 357 332 388 317 406 301 424 277 434 243 434 209 434 184 424 168 406 152 387 144 356 144 314 144 271 151 240 167 220 183 200 208 191 242 191Z"/>
<text fill-opacity="0" xml:space="preserve" transform="matrix(1 0 -0 1 95.01523 677.8619)" font-size="28" font-family="LiberationSerif"><tspan y="0" x="125.972">g</tspan></text>
<path transform="matrix(.028,0,0,-.028,234.98723,677.8619)" d="M185 609C185 594 179 581 169 571 159 561 146 556 132 556 117 556 104 561 94 571 84 581 79 594 79 609 79 623 84 636 94 646 104 656 117 662 132 662 146 662 159 656 169 646 179 636 185 623 185 609ZM180 34 259 22V0H21V22L99 34V425L34 437V459H180V34Z"/>
<text fill-opacity="0" xml:space="preserve" transform="matrix(1 0 -0 1 95.01523 677.8619)" font-size="28" font-family="LiberationSerif"><tspan y="0" x="139.972">i</tspan></text>
<path transform="matrix(.028,0,0,-.028,242.77123,677.8619)" d="M227 469C277 469 313 458 337 438 361 418 373 386 373 344V34L430 22V0H304L295 46C257 9 210-9 153-9 74-9 35 36 35 127 35 157 41 183 53 203 65 223 84 238 110 249 136 259 173 265 223 266L292 268V340C292 371 286 394 274 409 262 424 245 432 221 432 188 432 158 424 132 409L115 352H88V452C140 463 187 469 227 469ZM292 234 228 232C184 230 155 221 139 206 123 191 116 166 116 130 116 72 139 44 186 44 208 44 227 46 243 51 259 56 276 63 292 71V234Z"/>
<text fill-opacity="0" xml:space="preserve" transform="matrix(1 0 -0 1 95.01523 677.8619)" font-size="28" font-family="LiberationSerif"><tspan y="0" x="147.756">a</tspan></text>
<path transform="matrix(.028,0,0,-.028,255.20323,677.8619)" d="M158 422C183 436 210 447 238 457 266 466 290 471 309 471 349 471 379 459 399 436 419 413 429 380 429 336V34L485 22V0H287V22L348 34V327C348 354 341 375 328 391 315 406 295 414 267 414 237 414 201 409 159 400V34L221 22V0H23V22L78 34V425L23 437V459H154L158 422Z"/>
<text fill-opacity="0" xml:space="preserve" transform="matrix(1 0 -0 1 95.01523 677.8619)" font-size="28" font-family="LiberationSerif"><tspan y="0" x="160.188">n</tspan></text>
<path transform="matrix(.028,0,0,-.028,269.20326,677.8619)" d="M163-9C131-9 108 0 93 18 77 36 70 62 70 96V418H10V440L71 459 120 563H151V459H256V418H151V105C151 83 155 67 165 57 175 46 187 41 203 41 221 41 244 43 272 49V17C260 9 244 2 222-2 200-6 181-9 163-9Z"/>
<text fill-opacity="0" xml:space="preserve" transform="matrix(1 0 -0 1 95.01523 677.8619)" font-size="28" font-family="LiberationSerif"><tspan y="0" x="174.188">t</tspan></text>
<path transform="matrix(.028,0,0,-.028,276.98725,677.8619)" d="M37 198V273H297V198H37Z"/>
<text fill-opacity="0" xml:space="preserve" transform="matrix(1 0 -0 1 95.01523 677.8619)" font-size="28" font-family="LiberationSerif"><tspan y="0" x="181.972">-</tspan></text>
<path transform="matrix(.028,0,0,-.028,286.31123,677.8619)" d="M353 129C353 83 338 49 310 26 281 2 238-9 182-9 159-9 134-6 106-2 78 2 57 7 42 13V126H64L88 62C112 40 144 29 183 29 246 29 278 56 278 110 278 149 253 177 203 195L160 209C126 219 102 230 87 241 72 252 61 266 53 282 45 298 41 318 41 341 41 381 54 412 82 436 110 459 147 471 194 471 227 471 269 466 320 456V356H297L276 409C258 424 231 432 195 432 168 432 148 425 134 412 120 399 114 382 114 360 114 341 120 325 132 313 144 300 163 289 189 281 237 265 268 253 283 245 297 237 310 228 320 218 330 207 338 195 344 181 350 167 353 149 353 129Z"/>
<text fill-opacity="0" xml:space="preserve" transform="matrix(1 0 -0 1 95.01523 677.8619)" font-size="28" font-family="LiberationSerif"><tspan y="0" x="191.296">s</tspan></text>
<path transform="matrix(.028,0,0,-.028,297.20326,677.8619)" d="M163-9C131-9 108 0 93 18 77 36 70 62 70 96V418H10V440L71 459 120 563H151V459H256V418H151V105C151 83 155 67 165 57 175 46 187 41 203 41 221 41 244 43 272 49V17C260 9 244 2 222-2 200-6 181-9 163-9Z"/>
<text fill-opacity="0" xml:space="preserve" transform="matrix(1 0 -0 1 95.01523 677.8619)" font-size="28" font-family="LiberationSerif"><tspan y="0" x="202.188">t</tspan></text>
<path transform="matrix(.028,0,0,-.028,304.98725,677.8619)" d="M185 609C185 594 179 581 169 571 159 561 146 556 132 556 117 556 104 561 94 571 84 581 79 594 79 609 79 623 84 636 94 646 104 656 117 662 132 662 146 662 159 656 169 646 179 636 185 623 185 609ZM180 34 259 22V0H21V22L99 34V425L34 437V459H180V34Z"/>
<text fill-opacity="0" xml:space="preserve" transform="matrix(1 0 -0 1 95.01523 677.8619)" font-size="28" font-family="LiberationSerif"><tspan y="0" x="209.972">i</tspan></text>
<path transform="matrix(.028,0,0,-.028,312.77125,677.8619)" d="M163-9C131-9 108 0 93 18 77 36 70 62 70 96V418H10V440L71 459 120 563H151V459H256V418H151V105C151 83 155 67 165 57 175 46 187 41 203 41 221 41 244 43 272 49V17C260 9 244 2 222-2 200-6 181-9 163-9Z"/>
<text fill-opacity="0" xml:space="preserve" transform="matrix(1 0 -0 1 95.01523 677.8619)" font-size="28" font-family="LiberationSerif"><tspan y="0" x="217.756">t</tspan></text>
<path transform="matrix(.028,0,0,-.028,320.55525,677.8619)" d="M413 28C397 16 375 6 347 0 319-6 290-9 261-9 112-9 38 71 38 233 38 309 57 368 95 409 133 450 187 471 258 471 302 471 350 466 402 456V328H375L354 409C326 424 294 432 257 432 169 432 126 365 126 233 126 163 139 114 166 85 192 55 233 41 289 41 336 41 377 46 413 57V28Z"/>
<text fill-opacity="0" xml:space="preserve" transform="matrix(1 0 -0 1 95.01523 677.8619)" font-size="28" font-family="LiberationSerif"><tspan y="0" x="225.54">c</tspan></text>
<path transform="matrix(.028,0,0,-.028,332.98725,677.8619)" d="M159 495C159 461 158 436 156 422 179 435 205 446 235 456 265 466 290 471 311 471 351 471 381 459 401 436 421 413 431 380 431 336V34L487 22V0H289V22L350 34V330C350 386 323 414 269 414 238 414 201 409 159 400V34L221 22V0H20V22L78 34V660L10 672V694H159V495Z"/>
<text fill-opacity="0" xml:space="preserve" transform="matrix(1 0 -0 1 95.01523 677.8619)" font-size="28" font-family="LiberationSerif"><tspan y="0" x="237.972">h</tspan></text>
<path transform="matrix(.028,0,0,-.028,346.98725,677.8619)" d="M37 198V273H297V198H37Z"/>
<text fill-opacity="0" xml:space="preserve" transform="matrix(1 0 -0 1 95.01523 677.8619)" font-size="28" font-family="LiberationSerif"><tspan y="0" x="251.972">-</tspan></text>
<path transform="matrix(.028,0,0,-.028,356.31123,677.8619)" d="M272-9H236L47 425 0 437V459H214V437L141 424 275 107 403 425 330 437V459H500V437L456 427 272-9Z"/>
<text fill-opacity="0" xml:space="preserve" transform="matrix(1 0 -0 1 95.01523 677.8619)" font-size="28" font-family="LiberationSerif"><tspan y="0" x="261.296">v</tspan></text>
<path transform="matrix(.028,0,0,-.028,370.31123,677.8619)" d="M462 330C462 104 390-9 247-9 178-9 126 19 91 77 55 135 38 219 38 330 38 438 55 521 91 579 126 636 179 665 251 665 319 665 372 636 408 580 444 523 462 440 462 330ZM372 330C372 434 362 510 342 556 322 602 291 626 247 626 205 626 174 604 156 560 137 516 128 440 128 330 128 219 137 141 156 96 175 51 205 29 247 29 290 29 322 52 342 100 362 147 372 224 372 330Z"/>
<text fill-opacity="0" xml:space="preserve" transform="matrix(1 0 -0 1 95.01523 677.8619)" font-size="28" font-family="LiberationSerif"><tspan y="0" x="275.296">0</tspan></text>
<path transform="matrix(1,0,0,-1,0,691.10879)" d="M553.1676 39.66875V36.16875"/>
<path transform="matrix(1,0,0,-1,0,691.10879)" stroke-width=".8" stroke-linecap="butt" stroke-linejoin="round" fill="none" stroke="#000000" d="M553.1676 39.66875V36.16875"/>
<path transform="matrix(.028,0,0,-.028,420.2301,677.8619)" d="M227 469C277 469 313 458 337 438 361 418 373 386 373 344V34L430 22V0H304L295 46C257 9 210-9 153-9 74-9 35 36 35 127 35 157 41 183 53 203 65 223 84 238 110 249 136 259 173 265 223 266L292 268V340C292 371 286 394 274 409 262 424 245 432 221 432 188 432 158 424 132 409L115 352H88V452C140 463 187 469 227 469ZM292 234 228 232C184 230 155 221 139 206 123 191 116 166 116 130 116 72 139 44 186 44 208 44 227 46 243 51 259 56 276 63 292 71V234Z"/>
<text fill-opacity="0" xml:space="preserve" transform="matrix(1 0 -0 1 420.2301 677.8619)" font-size="28" font-family="LiberationSerif"><tspan y="0" x="0">a</tspan></text>
<path transform="matrix(.028,0,0,-.028,432.6621,677.8619)" d="M158 422C183 436 210 447 238 457 266 466 290 471 309 471 349 471 379 459 399 436 419 413 429 380 429 336V34L485 22V0H287V22L348 34V327C348 354 341 375 328 391 315 406 295 414 267 414 237 414 201 409 159 400V34L221 22V0H23V22L78 34V425L23 437V459H154L158 422Z"/>
<text fill-opacity="0" xml:space="preserve" transform="matrix(1 0 -0 1 420.2301 677.8619)" font-size="28" font-family="LiberationSerif"><tspan y="0" x="12.432001">n</tspan></text>
<path transform="matrix(.028,0,0,-.028,446.6621,677.8619)" d="M163-9C131-9 108 0 93 18 77 36 70 62 70 96V418H10V440L71 459 120 563H151V459H256V418H151V105C151 83 155 67 165 57 175 46 187 41 203 41 221 41 244 43 272 49V17C260 9 244 2 222-2 200-6 181-9 163-9Z"/>
<text fill-opacity="0" xml:space="preserve" transform="matrix(1 0 -0 1 420.2301 677.8619)" font-size="28" font-family="LiberationSerif"><tspan y="0" x="26.432002">t</tspan></text>
<path transform="matrix(.028,0,0,-.028,454.4461,677.8619)" d="M159 422C183 436 209 447 237 457 264 466 288 471 309 471 331 471 352 466 371 458 390 450 404 436 414 418 439 432 468 444 502 455 536 465 564 471 586 471 664 471 703 426 703 336V34L762 22V0H554V22L622 34V327C622 383 596 411 544 411 535 411 525 410 514 409 503 407 492 406 481 404 469 402 458 401 448 399 438 397 429 395 423 394 428 376 431 357 431 336V34L500 22V0H282V22L350 34V327C350 354 343 375 329 389 315 403 295 411 267 411 238 411 202 406 160 397V34L229 22V0H21V22L79 34V425L21 437V459H155L159 422Z"/>
<text fill-opacity="0" xml:space="preserve" transform="matrix(1 0 -0 1 420.2301 677.8619)" font-size="28" font-family="LiberationSerif"><tspan y="0" x="34.216005">m</tspan></text>
<path transform="matrix(.028,0,0,-.028,476.2301,677.8619)" d="M227 469C277 469 313 458 337 438 361 418 373 386 373 344V34L430 22V0H304L295 46C257 9 210-9 153-9 74-9 35 36 35 127 35 157 41 183 53 203 65 223 84 238 110 249 136 259 173 265 223 266L292 268V340C292 371 286 394 274 409 262 424 245 432 221 432 188 432 158 424 132 409L115 352H88V452C140 463 187 469 227 469ZM292 234 228 232C184 230 155 221 139 206 123 191 116 166 116 130 116 72 139 44 186 44 208 44 227 46 243 51 259 56 276 63 292 71V234Z"/>
<text fill-opacity="0" xml:space="preserve" transform="matrix(1 0 -0 1 420.2301 677.8619)" font-size="28" font-family="LiberationSerif"><tspan y="0" x="56.000009">a</tspan></text>
<path transform="matrix(.028,0,0,-.028,488.6621,677.8619)" d="M27 0V22L279 420H171C153 420 135 418 118 415 101 412 89 408 83 403L68 337H45V459H384V435L132 39H266C284 39 304 41 324 45 344 49 359 55 368 62L393 158H416L404 0H27Z"/>
<text fill-opacity="0" xml:space="preserve" transform="matrix(1 0 -0 1 420.2301 677.8619)" font-size="28" font-family="LiberationSerif"><tspan y="0" x="68.43201">z</tspan></text>
<path transform="matrix(.028,0,0,-.028,501.09413,677.8619)" d="M127 231V222C127 177 132 142 142 117 152 92 167 73 188 60 208 47 235 41 269 41 286 41 307 42 331 45 355 48 375 51 391 55V28C375 18 354 9 327 2 300-5 273-9 245-9 173-9 121 10 88 48 55 86 39 147 39 233 39 313 55 372 89 412 123 451 171 471 233 471 350 471 409 404 409 271V231H127ZM233 432C199 432 173 418 155 391 137 363 128 323 128 270H324C324 328 316 369 301 394 286 419 263 432 233 432Z"/>
<text fill-opacity="0" xml:space="preserve" transform="matrix(1 0 -0 1 420.2301 677.8619)" font-size="28" font-family="LiberationSerif"><tspan y="0" x="80.864009">e</tspan></text>
<path transform="matrix(.028,0,0,-.028,513.5261,677.8619)" d="M37 198V273H297V198H37Z"/>
<text fill-opacity="0" xml:space="preserve" transform="matrix(1 0 -0 1 420.2301 677.8619)" font-size="28" font-family="LiberationSerif"><tspan y="0" x="93.296009">-</tspan></text>
<path transform="matrix(.028,0,0,-.028,522.8501,677.8619)" d="M425 314C425 261 409 221 377 194 345 167 300 154 241 154 214 154 189 156 167 161L136 97C137 91 143 86 155 81 167 76 181 74 199 74H335C384 74 421 63 445 42 469 20 481-8 481-46 481-80 471-109 452-135 433-160 405-180 368-194 331-208 287-215 235-215 172-215 124-205 92-186 59-166 43-139 43-104 43-86 48-69 60-53 72-36 93-17 125 5 106 11 90 21 78 36 65 51 59 67 59 85L136 172C84 196 59 243 59 314 59 364 74 402 106 430 138 457 184 471 245 471 257 471 272 469 291 467 310 465 325 462 335 459L443 513 460 492 392 422C414 397 425 361 425 314ZM405-61C405-42 399-27 388-17 376-7 359-2 336-2H158C144-14 133-29 125-47 116-65 112-81 112-97 112-125 122-145 142-157 162-169 193-176 235-176 289-176 330-165 360-145 390-125 405-97 405-61ZM242 191C277 191 302 201 317 221 332 241 340 272 340 314 340 357 332 388 317 406 301 424 277 434 243 434 209 434 184 424 168 406 152 387 144 356 144 314 144 271 151 240 167 220 183 200 208 191 242 191Z"/>
<text fill-opacity="0" xml:space="preserve" transform="matrix(1 0 -0 1 420.2301 677.8619)" font-size="28" font-family="LiberationSerif"><tspan y="0" x="102.62">g</tspan></text>
<path transform="matrix(.028,0,0,-.028,536.8501,677.8619)" d="M185 609C185 594 179 581 169 571 159 561 146 556 132 556 117 556 104 561 94 571 84 581 79 594 79 609 79 623 84 636 94 646 104 656 117 662 132 662 146 662 159 656 169 646 179 636 185 623 185 609ZM180 34 259 22V0H21V22L99 34V425L34 437V459H180V34Z"/>
<text fill-opacity="0" xml:space="preserve" transform="matrix(1 0 -0 1 420.2301 677.8619)" font-size="28" font-family="LiberationSerif"><tspan y="0" x="116.62">i</tspan></text>
<path transform="matrix(.028,0,0,-.028,544.6341,677.8619)" d="M227 469C277 469 313 458 337 438 361 418 373 386 373 344V34L430 22V0H304L295 46C257 9 210-9 153-9 74-9 35 36 35 127 35 157 41 183 53 203 65 223 84 238 110 249 136 259 173 265 223 266L292 268V340C292 371 286 394 274 409 262 424 245 432 221 432 188 432 158 424 132 409L115 352H88V452C140 463 187 469 227 469ZM292 234 228 232C184 230 155 221 139 206 123 191 116 166 116 130 116 72 139 44 186 44 208 44 227 46 243 51 259 56 276 63 292 71V234Z"/>
<text fill-opacity="0" xml:space="preserve" transform="matrix(1 0 -0 1 420.2301 677.8619)" font-size="28" font-family="LiberationSerif"><tspan y="0" x="124.40401">a</tspan></text>
<path transform="matrix(.028,0,0,-.028,557.0661,677.8619)" d="M158 422C183 436 210 447 238 457 266 466 290 471 309 471 349 471 379 459 399 436 419 413 429 380 429 336V34L485 22V0H287V22L348 34V327C348 354 341 375 328 391 315 406 295 414 267 414 237 414 201 409 159 400V34L221 22V0H23V22L78 34V425L23 437V459H154L158 422Z"/>
<text fill-opacity="0" xml:space="preserve" transform="matrix(1 0 -0 1 420.2301 677.8619)" font-size="28" font-family="LiberationSerif"><tspan y="0" x="136.83602">n</tspan></text>
<path transform="matrix(.028,0,0,-.028,571.0661,677.8619)" d="M163-9C131-9 108 0 93 18 77 36 70 62 70 96V418H10V440L71 459 120 563H151V459H256V418H151V105C151 83 155 67 165 57 175 46 187 41 203 41 221 41 244 43 272 49V17C260 9 244 2 222-2 200-6 181-9 163-9Z"/>
<text fill-opacity="0" xml:space="preserve" transform="matrix(1 0 -0 1 420.2301 677.8619)" font-size="28" font-family="LiberationSerif"><tspan y="0" x="150.83602">t</tspan></text>
<path transform="matrix(.028,0,0,-.028,578.8501,677.8619)" d="M37 198V273H297V198H37Z"/>
<text fill-opacity="0" xml:space="preserve" transform="matrix(1 0 -0 1 420.2301 677.8619)" font-size="28" font-family="LiberationSerif"><tspan y="0" x="158.62001">-</tspan></text>
<path transform="matrix(.028,0,0,-.028,588.17416,677.8619)" d="M353 129C353 83 338 49 310 26 281 2 238-9 182-9 159-9 134-6 106-2 78 2 57 7 42 13V126H64L88 62C112 40 144 29 183 29 246 29 278 56 278 110 278 149 253 177 203 195L160 209C126 219 102 230 87 241 72 252 61 266 53 282 45 298 41 318 41 341 41 381 54 412 82 436 110 459 147 471 194 471 227 471 269 466 320 456V356H297L276 409C258 424 231 432 195 432 168 432 148 425 134 412 120 399 114 382 114 360 114 341 120 325 132 313 144 300 163 289 189 281 237 265 268 253 283 245 297 237 310 228 320 218 330 207 338 195 344 181 350 167 353 149 353 129Z"/>
<text fill-opacity="0" xml:space="preserve" transform="matrix(1 0 -0 1 420.2301 677.8619)" font-size="28" font-family="LiberationSerif"><tspan y="0" x="167.94402">s</tspan></text>
<path transform="matrix(.028,0,0,-.028,599.0661,677.8619)" d="M163-9C131-9 108 0 93 18 77 36 70 62 70 96V418H10V440L71 459 120 563H151V459H256V418H151V105C151 83 155 67 165 57 175 46 187 41 203 41 221 41 244 43 272 49V17C260 9 244 2 222-2 200-6 181-9 163-9Z"/>
<text fill-opacity="0" xml:space="preserve" transform="matrix(1 0 -0 1 420.2301 677.8619)" font-size="28" font-family="LiberationSerif"><tspan y="0" x="178.83602">t</tspan></text>
<path transform="matrix(.028,0,0,-.028,606.8501,677.8619)" d="M185 609C185 594 179 581 169 571 159 561 146 556 132 556 117 556 104 561 94 571 84 581 79 594 79 609 79 623 84 636 94 646 104 656 117 662 132 662 146 662 159 656 169 646 179 636 185 623 185 609ZM180 34 259 22V0H21V22L99 34V425L34 437V459H180V34Z"/>
<text fill-opacity="0" xml:space="preserve" transform="matrix(1 0 -0 1 420.2301 677.8619)" font-size="28" font-family="LiberationSerif"><tspan y="0" x="186.62001">i</tspan></text>
<path transform="matrix(.028,0,0,-.028,614.6341,677.8619)" d="M163-9C131-9 108 0 93 18 77 36 70 62 70 96V418H10V440L71 459 120 563H151V459H256V418H151V105C151 83 155 67 165 57 175 46 187 41 203 41 221 41 244 43 272 49V17C260 9 244 2 222-2 200-6 181-9 163-9Z"/>
<text fill-opacity="0" xml:space="preserve" transform="matrix(1 0 -0 1 420.2301 677.8619)" font-size="28" font-family="LiberationSerif"><tspan y="0" x="194.404">t</tspan></text>
<path transform="matrix(.028,0,0,-.028,622.4181,677.8619)" d="M413 28C397 16 375 6 347 0 319-6 290-9 261-9 112-9 38 71 38 233 38 309 57 368 95 409 133 450 187 471 258 471 302 471 350 466 402 456V328H375L354 409C326 424 294 432 257 432 169 432 126 365 126 233 126 163 139 114 166 85 192 55 233 41 289 41 336 41 377 46 413 57V28Z"/>
<text fill-opacity="0" xml:space="preserve" transform="matrix(1 0 -0 1 420.2301 677.8619)" font-size="28" font-family="LiberationSerif"><tspan y="0" x="202.188">c</tspan></text>
<path transform="matrix(.028,0,0,-.028,634.8501,677.8619)" d="M159 495C159 461 158 436 156 422 179 435 205 446 235 456 265 466 290 471 311 471 351 471 381 459 401 436 421 413 431 380 431 336V34L487 22V0H289V22L350 34V330C350 386 323 414 269 414 238 414 201 409 159 400V34L221 22V0H20V22L78 34V660L10 672V694H159V495Z"/>
<text fill-opacity="0" xml:space="preserve" transform="matrix(1 0 -0 1 420.2301 677.8619)" font-size="28" font-family="LiberationSerif"><tspan y="0" x="214.62001">h</tspan></text>
<path transform="matrix(.028,0,0,-.028,648.8501,677.8619)" d="M37 198V273H297V198H37Z"/>
<text fill-opacity="0" xml:space="preserve" transform="matrix(1 0 -0 1 420.2301 677.8619)" font-size="28" font-family="LiberationSerif"><tspan y="0" x="228.62001">-</tspan></text>
<path transform="matrix(.028,0,0,-.028,658.17416,677.8619)" d="M272-9H236L47 425 0 437V459H214V437L141 424 275 107 403 425 330 437V459H500V437L456 427 272-9Z"/>
<text fill-opacity="0" xml:space="preserve" transform="matrix(1 0 -0 1 420.2301 677.8619)" font-size="28" font-family="LiberationSerif"><tspan y="0" x="237.94402">v</tspan></text>
<path transform="matrix(.028,0,0,-.028,672.17416,677.8619)" d="M462 330C462 104 390-9 247-9 178-9 126 19 91 77 55 135 38 219 38 330 38 438 55 521 91 579 126 636 179 665 251 665 319 665 372 636 408 580 444 523 462 440 462 330ZM372 330C372 434 362 510 342 556 322 602 291 626 247 626 205 626 174 604 156 560 137 516 128 440 128 330 128 219 137 141 156 96 175 51 205 29 247 29 290 29 322 52 342 100 362 147 372 224 372 330Z"/>
<text fill-opacity="0" xml:space="preserve" transform="matrix(1 0 -0 1 420.2301 677.8619)" font-size="28" font-family="LiberationSerif"><tspan y="0" x="251.94402">0</tspan></text>
<path transform="matrix(1,0,0,-1,0,691.10879)" d="M866.70278 39.66875V36.16875"/>
<path transform="matrix(1,0,0,-1,0,691.10879)" stroke-width=".8" stroke-linecap="butt" stroke-linejoin="round" fill="none" stroke="#000000" d="M866.70278 39.66875V36.16875"/>
<path transform="matrix(.028,0,0,-.028,694.87466,677.8619)" d="M159 495C159 461 158 436 156 422 179 435 205 446 235 456 265 466 290 471 311 471 351 471 381 459 401 436 421 413 431 380 431 336V34L487 22V0H289V22L350 34V330C350 386 323 414 269 414 238 414 201 409 159 400V34L221 22V0H20V22L78 34V660L10 672V694H159V495Z"/>
<text fill-opacity="0" xml:space="preserve" transform="matrix(1 0 -0 1 694.87466 677.8619)" font-size="28" font-family="LiberationSerif"><tspan y="0" x="0">h</tspan></text>
<path transform="matrix(.028,0,0,-.028,708.87466,677.8619)" d="M153 131C153 75 179 47 231 47 271 47 309 52 344 62V425L275 437V459H425V34L483 22V0H349L345 37C322 24 295 13 265 4 235-4 209-9 189-9 111-9 72 35 72 125V425L13 437V459H153V131Z"/>
<text fill-opacity="0" xml:space="preserve" transform="matrix(1 0 -0 1 694.87466 677.8619)" font-size="28" font-family="LiberationSerif"><tspan y="0" x="14">u</tspan></text>
<path transform="matrix(.028,0,0,-.028,722.87466,677.8619)" d="M159 422C183 436 209 447 237 457 264 466 288 471 309 471 331 471 352 466 371 458 390 450 404 436 414 418 439 432 468 444 502 455 536 465 564 471 586 471 664 471 703 426 703 336V34L762 22V0H554V22L622 34V327C622 383 596 411 544 411 535 411 525 410 514 409 503 407 492 406 481 404 469 402 458 401 448 399 438 397 429 395 423 394 428 376 431 357 431 336V34L500 22V0H282V22L350 34V327C350 354 343 375 329 389 315 403 295 411 267 411 238 411 202 406 160 397V34L229 22V0H21V22L79 34V425L21 437V459H155L159 422Z"/>
<text fill-opacity="0" xml:space="preserve" transform="matrix(1 0 -0 1 694.87466 677.8619)" font-size="28" font-family="LiberationSerif"><tspan y="0" x="28">m</tspan></text>
<path transform="matrix(.028,0,0,-.028,744.6586,677.8619)" d="M227 469C277 469 313 458 337 438 361 418 373 386 373 344V34L430 22V0H304L295 46C257 9 210-9 153-9 74-9 35 36 35 127 35 157 41 183 53 203 65 223 84 238 110 249 136 259 173 265 223 266L292 268V340C292 371 286 394 274 409 262 424 245 432 221 432 188 432 158 424 132 409L115 352H88V452C140 463 187 469 227 469ZM292 234 228 232C184 230 155 221 139 206 123 191 116 166 116 130 116 72 139 44 186 44 208 44 227 46 243 51 259 56 276 63 292 71V234Z"/>
<text fill-opacity="0" xml:space="preserve" transform="matrix(1 0 -0 1 694.87466 677.8619)" font-size="28" font-family="LiberationSerif"><tspan y="0" x="49.784006">a</tspan></text>
<path transform="matrix(.028,0,0,-.028,757.09066,677.8619)" d="M158 422C183 436 210 447 238 457 266 466 290 471 309 471 349 471 379 459 399 436 419 413 429 380 429 336V34L485 22V0H287V22L348 34V327C348 354 341 375 328 391 315 406 295 414 267 414 237 414 201 409 159 400V34L221 22V0H23V22L78 34V425L23 437V459H154L158 422Z"/>
<text fill-opacity="0" xml:space="preserve" transform="matrix(1 0 -0 1 694.87466 677.8619)" font-size="28" font-family="LiberationSerif"><tspan y="0" x="62.216005">n</tspan></text>
<path transform="matrix(.028,0,0,-.028,771.09066,677.8619)" d="M462 232C462 71 390-9 247-9 178-9 126 11 91 52 55 93 38 153 38 232 38 309 55 368 91 409 126 450 179 471 251 471 320 471 372 451 408 411 444 371 462 311 462 232ZM374 232C374 302 363 352 343 384 323 416 291 432 247 432 204 432 173 416 154 386 135 356 126 304 126 232 126 158 135 105 155 75 174 44 205 29 247 29 290 29 322 45 343 77 363 109 374 160 374 232Z"/>
<text fill-opacity="0" xml:space="preserve" transform="matrix(1 0 -0 1 694.87466 677.8619)" font-size="28" font-family="LiberationSerif"><tspan y="0" x="76.216">o</tspan></text>
<path transform="matrix(.028,0,0,-.028,785.09066,677.8619)" d="M185 609C185 594 179 581 169 571 159 561 146 556 132 556 117 556 104 561 94 571 84 581 79 594 79 609 79 623 84 636 94 646 104 656 117 662 132 662 146 662 159 656 169 646 179 636 185 623 185 609ZM180 34 259 22V0H21V22L99 34V425L34 437V459H180V34Z"/>
<text fill-opacity="0" xml:space="preserve" transform="matrix(1 0 -0 1 694.87466 677.8619)" font-size="28" font-family="LiberationSerif"><tspan y="0" x="90.216">i</tspan></text>
<path transform="matrix(.028,0,0,-.028,792.87466,677.8619)" d="M353 34C316 5 273-9 224-9 98-9 36 69 36 225 36 305 53 366 89 408 125 450 177 471 246 471 281 471 317 467 353 460 351 470 350 497 350 541V660L273 672V694H431V34L488 22V0H359L353 34ZM124 225C124 163 134 116 155 86 176 56 208 41 251 41 287 41 320 47 350 60V423C321 428 288 431 251 431 166 431 124 362 124 225Z"/>
<text fill-opacity="0" xml:space="preserve" transform="matrix(1 0 -0 1 694.87466 677.8619)" font-size="28" font-family="LiberationSerif"><tspan y="0" x="98.00001">d</tspan></text>
<path transform="matrix(.028,0,0,-.028,806.87466,677.8619)" d="M159 422C183 436 209 447 237 457 264 466 288 471 309 471 331 471 352 466 371 458 390 450 404 436 414 418 439 432 468 444 502 455 536 465 564 471 586 471 664 471 703 426 703 336V34L762 22V0H554V22L622 34V327C622 383 596 411 544 411 535 411 525 410 514 409 503 407 492 406 481 404 469 402 458 401 448 399 438 397 429 395 423 394 428 376 431 357 431 336V34L500 22V0H282V22L350 34V327C350 354 343 375 329 389 315 403 295 411 267 411 238 411 202 406 160 397V34L229 22V0H21V22L79 34V425L21 437V459H155L159 422Z"/>
<text fill-opacity="0" xml:space="preserve" transform="matrix(1 0 -0 1 694.87466 677.8619)" font-size="28" font-family="LiberationSerif"><tspan y="0" x="112.00001">m</tspan></text>
<path transform="matrix(.028,0,0,-.028,828.6586,677.8619)" d="M227 469C277 469 313 458 337 438 361 418 373 386 373 344V34L430 22V0H304L295 46C257 9 210-9 153-9 74-9 35 36 35 127 35 157 41 183 53 203 65 223 84 238 110 249 136 259 173 265 223 266L292 268V340C292 371 286 394 274 409 262 424 245 432 221 432 188 432 158 424 132 409L115 352H88V452C140 463 187 469 227 469ZM292 234 228 232C184 230 155 221 139 206 123 191 116 166 116 130 116 72 139 44 186 44 208 44 227 46 243 51 259 56 276 63 292 71V234Z"/>
<text fill-opacity="0" xml:space="preserve" transform="matrix(1 0 -0 1 694.87466 677.8619)" font-size="28" font-family="LiberationSerif"><tspan y="0" x="133.78401">a</tspan></text>
<path transform="matrix(.028,0,0,-.028,841.09066,677.8619)" d="M27 0V22L279 420H171C153 420 135 418 118 415 101 412 89 408 83 403L68 337H45V459H384V435L132 39H266C284 39 304 41 324 45 344 49 359 55 368 62L393 158H416L404 0H27Z"/>
<text fill-opacity="0" xml:space="preserve" transform="matrix(1 0 -0 1 694.87466 677.8619)" font-size="28" font-family="LiberationSerif"><tspan y="0" x="146.21602">z</tspan></text>
<path transform="matrix(.028,0,0,-.028,853.52267,677.8619)" d="M127 231V222C127 177 132 142 142 117 152 92 167 73 188 60 208 47 235 41 269 41 286 41 307 42 331 45 355 48 375 51 391 55V28C375 18 354 9 327 2 300-5 273-9 245-9 173-9 121 10 88 48 55 86 39 147 39 233 39 313 55 372 89 412 123 451 171 471 233 471 350 471 409 404 409 271V231H127ZM233 432C199 432 173 418 155 391 137 363 128 323 128 270H324C324 328 316 369 301 394 286 419 263 432 233 432Z"/>
<text fill-opacity="0" xml:space="preserve" transform="matrix(1 0 -0 1 694.87466 677.8619)" font-size="28" font-family="LiberationSerif"><tspan y="0" x="158.64803">e</tspan></text>
<path transform="matrix(.028,0,0,-.028,865.95468,677.8619)" d="M37 198V273H297V198H37Z"/>
<text fill-opacity="0" xml:space="preserve" transform="matrix(1 0 -0 1 694.87466 677.8619)" font-size="28" font-family="LiberationSerif"><tspan y="0" x="171.08003">-</tspan></text>
<path transform="matrix(.028,0,0,-.028,875.2787,677.8619)" d="M425 314C425 261 409 221 377 194 345 167 300 154 241 154 214 154 189 156 167 161L136 97C137 91 143 86 155 81 167 76 181 74 199 74H335C384 74 421 63 445 42 469 20 481-8 481-46 481-80 471-109 452-135 433-160 405-180 368-194 331-208 287-215 235-215 172-215 124-205 92-186 59-166 43-139 43-104 43-86 48-69 60-53 72-36 93-17 125 5 106 11 90 21 78 36 65 51 59 67 59 85L136 172C84 196 59 243 59 314 59 364 74 402 106 430 138 457 184 471 245 471 257 471 272 469 291 467 310 465 325 462 335 459L443 513 460 492 392 422C414 397 425 361 425 314ZM405-61C405-42 399-27 388-17 376-7 359-2 336-2H158C144-14 133-29 125-47 116-65 112-81 112-97 112-125 122-145 142-157 162-169 193-176 235-176 289-176 330-165 360-145 390-125 405-97 405-61ZM242 191C277 191 302 201 317 221 332 241 340 272 340 314 340 357 332 388 317 406 301 424 277 434 243 434 209 434 184 424 168 406 152 387 144 356 144 314 144 271 151 240 167 220 183 200 208 191 242 191Z"/>
<text fill-opacity="0" xml:space="preserve" transform="matrix(1 0 -0 1 694.87466 677.8619)" font-size="28" font-family="LiberationSerif"><tspan y="0" x="180.40404">g</tspan></text>
<path transform="matrix(.028,0,0,-.028,889.2787,677.8619)" d="M185 609C185 594 179 581 169 571 159 561 146 556 132 556 117 556 104 561 94 571 84 581 79 594 79 609 79 623 84 636 94 646 104 656 117 662 132 662 146 662 159 656 169 646 179 636 185 623 185 609ZM180 34 259 22V0H21V22L99 34V425L34 437V459H180V34Z"/>
<text fill-opacity="0" xml:space="preserve" transform="matrix(1 0 -0 1 694.87466 677.8619)" font-size="28" font-family="LiberationSerif"><tspan y="0" x="194.40404">i</tspan></text>
<path transform="matrix(.028,0,0,-.028,897.0627,677.8619)" d="M227 469C277 469 313 458 337 438 361 418 373 386 373 344V34L430 22V0H304L295 46C257 9 210-9 153-9 74-9 35 36 35 127 35 157 41 183 53 203 65 223 84 238 110 249 136 259 173 265 223 266L292 268V340C292 371 286 394 274 409 262 424 245 432 221 432 188 432 158 424 132 409L115 352H88V452C140 463 187 469 227 469ZM292 234 228 232C184 230 155 221 139 206 123 191 116 166 116 130 116 72 139 44 186 44 208 44 227 46 243 51 259 56 276 63 292 71V234Z"/>
<text fill-opacity="0" xml:space="preserve" transform="matrix(1 0 -0 1 694.87466 677.8619)" font-size="28" font-family="LiberationSerif"><tspan y="0" x="202.18804">a</tspan></text>
<path transform="matrix(.028,0,0,-.028,909.4947,677.8619)" d="M158 422C183 436 210 447 238 457 266 466 290 471 309 471 349 471 379 459 399 436 419 413 429 380 429 336V34L485 22V0H287V22L348 34V327C348 354 341 375 328 391 315 406 295 414 267 414 237 414 201 409 159 400V34L221 22V0H23V22L78 34V425L23 437V459H154L158 422Z"/>
<text fill-opacity="0" xml:space="preserve" transform="matrix(1 0 -0 1 694.87466 677.8619)" font-size="28" font-family="LiberationSerif"><tspan y="0" x="214.62004">n</tspan></text>
<path transform="matrix(.028,0,0,-.028,923.4947,677.8619)" d="M163-9C131-9 108 0 93 18 77 36 70 62 70 96V418H10V440L71 459 120 563H151V459H256V418H151V105C151 83 155 67 165 57 175 46 187 41 203 41 221 41 244 43 272 49V17C260 9 244 2 222-2 200-6 181-9 163-9Z"/>
<text fill-opacity="0" xml:space="preserve" transform="matrix(1 0 -0 1 694.87466 677.8619)" font-size="28" font-family="LiberationSerif"><tspan y="0" x="228.62004">t</tspan></text>
<path transform="matrix(.028,0,0,-.028,931.2787,677.8619)" d="M37 198V273H297V198H37Z"/>
<text fill-opacity="0" xml:space="preserve" transform="matrix(1 0 -0 1 694.87466 677.8619)" font-size="28" font-family="LiberationSerif"><tspan y="0" x="236.40404">-</tspan></text>
<path transform="matrix(.028,0,0,-.028,940.60269,677.8619)" d="M353 129C353 83 338 49 310 26 281 2 238-9 182-9 159-9 134-6 106-2 78 2 57 7 42 13V126H64L88 62C112 40 144 29 183 29 246 29 278 56 278 110 278 149 253 177 203 195L160 209C126 219 102 230 87 241 72 252 61 266 53 282 45 298 41 318 41 341 41 381 54 412 82 436 110 459 147 471 194 471 227 471 269 466 320 456V356H297L276 409C258 424 231 432 195 432 168 432 148 425 134 412 120 399 114 382 114 360 114 341 120 325 132 313 144 300 163 289 189 281 237 265 268 253 283 245 297 237 310 228 320 218 330 207 338 195 344 181 350 167 353 149 353 129Z"/>
<text fill-opacity="0" xml:space="preserve" transform="matrix(1 0 -0 1 694.87466 677.8619)" font-size="28" font-family="LiberationSerif"><tspan y="0" x="245.72805">s</tspan></text>
<path transform="matrix(.028,0,0,-.028,951.4947,677.8619)" d="M163-9C131-9 108 0 93 18 77 36 70 62 70 96V418H10V440L71 459 120 563H151V459H256V418H151V105C151 83 155 67 165 57 175 46 187 41 203 41 221 41 244 43 272 49V17C260 9 244 2 222-2 200-6 181-9 163-9Z"/>
<text fill-opacity="0" xml:space="preserve" transform="matrix(1 0 -0 1 694.87466 677.8619)" font-size="28" font-family="LiberationSerif"><tspan y="0" x="256.62007">t</tspan></text>
<path transform="matrix(.028,0,0,-.028,959.2787,677.8619)" d="M185 609C185 594 179 581 169 571 159 561 146 556 132 556 117 556 104 561 94 571 84 581 79 594 79 609 79 623 84 636 94 646 104 656 117 662 132 662 146 662 159 656 169 646 179 636 185 623 185 609ZM180 34 259 22V0H21V22L99 34V425L34 437V459H180V34Z"/>
<text fill-opacity="0" xml:space="preserve" transform="matrix(1 0 -0 1 694.87466 677.8619)" font-size="28" font-family="LiberationSerif"><tspan y="0" x="264.40406">i</tspan></text>
<path transform="matrix(.028,0,0,-.028,967.0627,677.8619)" d="M163-9C131-9 108 0 93 18 77 36 70 62 70 96V418H10V440L71 459 120 563H151V459H256V418H151V105C151 83 155 67 165 57 175 46 187 41 203 41 221 41 244 43 272 49V17C260 9 244 2 222-2 200-6 181-9 163-9Z"/>
<text fill-opacity="0" xml:space="preserve" transform="matrix(1 0 -0 1 694.87466 677.8619)" font-size="28" font-family="LiberationSerif"><tspan y="0" x="272.18806">t</tspan></text>
<path transform="matrix(.028,0,0,-.028,974.8467,677.8619)" d="M413 28C397 16 375 6 347 0 319-6 290-9 261-9 112-9 38 71 38 233 38 309 57 368 95 409 133 450 187 471 258 471 302 471 350 466 402 456V328H375L354 409C326 424 294 432 257 432 169 432 126 365 126 233 126 163 139 114 166 85 192 55 233 41 289 41 336 41 377 46 413 57V28Z"/>
<text fill-opacity="0" xml:space="preserve" transform="matrix(1 0 -0 1 694.87466 677.8619)" font-size="28" font-family="LiberationSerif"><tspan y="0" x="279.97206">c</tspan></text>
<path transform="matrix(.028,0,0,-.028,987.2787,677.8619)" d="M159 495C159 461 158 436 156 422 179 435 205 446 235 456 265 466 290 471 311 471 351 471 381 459 401 436 421 413 431 380 431 336V34L487 22V0H289V22L350 34V330C350 386 323 414 269 414 238 414 201 409 159 400V34L221 22V0H20V22L78 34V660L10 672V694H159V495Z"/>
<text fill-opacity="0" xml:space="preserve" transform="matrix(1 0 -0 1 694.87466 677.8619)" font-size="28" font-family="LiberationSerif"><tspan y="0" x="292.40406">h</tspan></text>
<path transform="matrix(.028,0,0,-.028,1001.2787,677.8619)" d="M37 198V273H297V198H37Z"/>
<text fill-opacity="0" xml:space="preserve" transform="matrix(1 0 -0 1 694.87466 677.8619)" font-size="28" font-family="LiberationSerif"><tspan y="0" x="306.40406">-</tspan></text>
<path transform="matrix(.028,0,0,-.028,1010.60269,677.8619)" d="M272-9H236L47 425 0 437V459H214V437L141 424 275 107 403 425 330 437V459H500V437L456 427 272-9Z"/>
<text fill-opacity="0" xml:space="preserve" transform="matrix(1 0 -0 1 694.87466 677.8619)" font-size="28" font-family="LiberationSerif"><tspan y="0" x="315.72807">v</tspan></text>
<path transform="matrix(.028,0,0,-.028,1024.6027,677.8619)" d="M462 330C462 104 390-9 247-9 178-9 126 19 91 77 55 135 38 219 38 330 38 438 55 521 91 579 126 636 179 665 251 665 319 665 372 636 408 580 444 523 462 440 462 330ZM372 330C372 434 362 510 342 556 322 602 291 626 247 626 205 626 174 604 156 560 137 516 128 440 128 330 128 219 137 141 156 96 175 51 205 29 247 29 290 29 322 52 342 100 362 147 372 224 372 330Z"/>
<text fill-opacity="0" xml:space="preserve" transform="matrix(1 0 -0 1 694.87466 677.8619)" font-size="28" font-family="LiberationSerif"><tspan y="0" x="329.72807">0</tspan></text>
<g clip-path="url(#clip_0)">
<path transform="matrix(1,0,0,-1,0,691.10879)" stroke-width=".6" stroke-linecap="square" stroke-linejoin="round" fill="none" stroke="#d9d9d9" d="M94.46562 39.66875H1011.86959"/>
</g>
<path transform="matrix(1,0,0,-1,0,691.10879)" d="M94.46562 39.66875H90.96562"/>
<path transform="matrix(1,0,0,-1,0,691.10879)" stroke-width=".8" stroke-linecap="butt" stroke-linejoin="round" fill="none" stroke="#000000" d="M94.46562 39.66875H90.96562"/>
<path transform="matrix(.032,0,0,-.032,47.465627,662.54159)" d="M462 330C462 104 390-9 247-9 178-9 126 19 91 77 55 135 38 219 38 330 38 438 55 521 91 579 126 636 179 665 251 665 319 665 372 636 408 580 444 523 462 440 462 330ZM372 330C372 434 362 510 342 556 322 602 291 626 247 626 205 626 174 604 156 560 137 516 128 440 128 330 128 219 137 141 156 96 175 51 205 29 247 29 290 29 322 52 342 100 362 147 372 224 372 330Z"/>
<text fill-opacity="0" xml:space="preserve" transform="matrix(1 0 -0 1 47.465627 662.54159)" font-size="32" font-family="LiberationSerif"><tspan y="0" x="0">0</tspan></text>
<path transform="matrix(.032,0,0,-.032,63.465627,662.54159)" d="M184 45C184 29 178 15 167 4 155-7 141-13 125-13 108-13 94-7 83 4 71 15 66 29 66 45 66 61 71 75 83 87 94 98 108 104 125 104 141 104 155 98 167 87 178 75 184 61 184 45Z"/>
<text fill-opacity="0" xml:space="preserve" transform="matrix(1 0 -0 1 47.465627 662.54159)" font-size="32" font-family="LiberationSerif"><tspan y="0" x="16">.</tspan></text>
<path transform="matrix(.032,0,0,-.032,71.46562,662.54159)" d="M462 330C462 104 390-9 247-9 178-9 126 19 91 77 55 135 38 219 38 330 38 438 55 521 91 579 126 636 179 665 251 665 319 665 372 636 408 580 444 523 462 440 462 330ZM372 330C372 434 362 510 342 556 322 602 291 626 247 626 205 626 174 604 156 560 137 516 128 440 128 330 128 219 137 141 156 96 175 51 205 29 247 29 290 29 322 52 342 100 362 147 372 224 372 330Z"/>
<text fill-opacity="0" xml:space="preserve" transform="matrix(1 0 -0 1 47.465627 662.54159)" font-size="32" font-family="LiberationSerif"><tspan y="0" x="24">0</tspan></text>
<g clip-path="url(#clip_1)">
<path transform="matrix(1,0,0,-1,0,691.10879)" stroke-width=".6" stroke-linecap="square" stroke-linejoin="round" fill="none" stroke="#d9d9d9" d="M94.46562 162.38114H1011.86959"/>
</g>
<path transform="matrix(1,0,0,-1,0,691.10879)" d="M94.46562 162.38114H90.96562"/>
<path transform="matrix(1,0,0,-1,0,691.10879)" stroke-width=".8" stroke-linecap="butt" stroke-linejoin="round" fill="none" stroke="#000000" d="M94.46562 162.38114H90.96562"/>
<path transform="matrix(.032,0,0,-.032,47.465627,539.8292)" d="M462 330C462 104 390-9 247-9 178-9 126 19 91 77 55 135 38 219 38 330 38 438 55 521 91 579 126 636 179 665 251 665 319 665 372 636 408 580 444 523 462 440 462 330ZM372 330C372 434 362 510 342 556 322 602 291 626 247 626 205 626 174 604 156 560 137 516 128 440 128 330 128 219 137 141 156 96 175 51 205 29 247 29 290 29 322 52 342 100 362 147 372 224 372 330Z"/>
<text fill-opacity="0" xml:space="preserve" transform="matrix(1 0 -0 1 47.465627 539.8292)" font-size="32" font-family="LiberationSerif"><tspan y="0" x="0">0</tspan></text>
<path transform="matrix(.032,0,0,-.032,63.465627,539.8292)" d="M184 45C184 29 178 15 167 4 155-7 141-13 125-13 108-13 94-7 83 4 71 15 66 29 66 45 66 61 71 75 83 87 94 98 108 104 125 104 141 104 155 98 167 87 178 75 184 61 184 45Z"/>
<text fill-opacity="0" xml:space="preserve" transform="matrix(1 0 -0 1 47.465627 539.8292)" font-size="32" font-family="LiberationSerif"><tspan y="0" x="16">.</tspan></text>
<path transform="matrix(.032,0,0,-.032,71.46562,539.8292)" d="M445 0H44V72L135 154C193 205 235 246 263 278 290 310 310 342 322 376 334 409 340 447 340 491 340 533 330 566 311 588 291 610 260 621 217 621 199 621 181 618 163 614 145 609 129 603 115 595L98 515H66V641C125 655 175 662 217 662 288 662 342 647 378 617 414 587 432 545 432 491 432 455 425 420 411 388 397 355 375 323 346 291 316 259 268 214 200 157 171 132 140 105 108 75H445V0Z"/>
<text fill-opacity="0" xml:space="preserve" transform="matrix(1 0 -0 1 47.465627 539.8292)" font-size="32" font-family="LiberationSerif"><tspan y="0" x="24">2</tspan></text>
<g clip-path="url(#clip_2)">
<path transform="matrix(1,0,0,-1,0,691.10879)" stroke-width=".6" stroke-linecap="square" stroke-linejoin="round" fill="none" stroke="#d9d9d9" d="M94.46562 285.0935H1011.86959"/>
</g>
<path transform="matrix(1,0,0,-1,0,691.10879)" d="M94.46562 285.0935H90.96562"/>
<path transform="matrix(1,0,0,-1,0,691.10879)" stroke-width=".8" stroke-linecap="butt" stroke-linejoin="round" fill="none" stroke="#000000" d="M94.46562 285.0935H90.96562"/>
<path transform="matrix(.032,0,0,-.032,47.465627,417.11683)" d="M462 330C462 104 390-9 247-9 178-9 126 19 91 77 55 135 38 219 38 330 38 438 55 521 91 579 126 636 179 665 251 665 319 665 372 636 408 580 444 523 462 440 462 330ZM372 330C372 434 362 510 342 556 322 602 291 626 247 626 205 626 174 604 156 560 137 516 128 440 128 330 128 219 137 141 156 96 175 51 205 29 247 29 290 29 322 52 342 100 362 147 372 224 372 330Z"/>
<text fill-opacity="0" xml:space="preserve" transform="matrix(1 0 -0 1 47.465627 417.11683)" font-size="32" font-family="LiberationSerif"><tspan y="0" x="0">0</tspan></text>
<path transform="matrix(.032,0,0,-.032,63.465627,417.11683)" d="M184 45C184 29 178 15 167 4 155-7 141-13 125-13 108-13 94-7 83 4 71 15 66 29 66 45 66 61 71 75 83 87 94 98 108 104 125 104 141 104 155 98 167 87 178 75 184 61 184 45Z"/>
<text fill-opacity="0" xml:space="preserve" transform="matrix(1 0 -0 1 47.465627 417.11683)" font-size="32" font-family="LiberationSerif"><tspan y="0" x="16">.</tspan></text>
<path transform="matrix(.032,0,0,-.032,71.46562,417.11683)" d="M396 144V0H312V144H20V209L339 658H396V214H484V144H396ZM312 543H309L75 214H312V543Z"/>
<text fill-opacity="0" xml:space="preserve" transform="matrix(1 0 -0 1 47.465627 417.11683)" font-size="32" font-family="LiberationSerif"><tspan y="0" x="24">4</tspan></text>
<g clip-path="url(#clip_3)">
<path transform="matrix(1,0,0,-1,0,691.10879)" stroke-width=".6" stroke-linecap="square" stroke-linejoin="round" fill="none" stroke="#d9d9d9" d="M94.46562 407.8059H1011.86959"/>
</g>
<path transform="matrix(1,0,0,-1,0,691.10879)" d="M94.46562 407.8059H90.96562"/>
<path transform="matrix(1,0,0,-1,0,691.10879)" stroke-width=".8" stroke-linecap="butt" stroke-linejoin="round" fill="none" stroke="#000000" d="M94.46562 407.8059H90.96562"/>
<path transform="matrix(.032,0,0,-.032,47.465627,294.40446)" d="M462 330C462 104 390-9 247-9 178-9 126 19 91 77 55 135 38 219 38 330 38 438 55 521 91 579 126 636 179 665 251 665 319 665 372 636 408 580 444 523 462 440 462 330ZM372 330C372 434 362 510 342 556 322 602 291 626 247 626 205 626 174 604 156 560 137 516 128 440 128 330 128 219 137 141 156 96 175 51 205 29 247 29 290 29 322 52 342 100 362 147 372 224 372 330Z"/>
<text fill-opacity="0" xml:space="preserve" transform="matrix(1 0 -0 1 47.465627 294.40446)" font-size="32" font-family="LiberationSerif"><tspan y="0" x="0">0</tspan></text>
<path transform="matrix(.032,0,0,-.032,63.465627,294.40446)" d="M184 45C184 29 178 15 167 4 155-7 141-13 125-13 108-13 94-7 83 4 71 15 66 29 66 45 66 61 71 75 83 87 94 98 108 104 125 104 141 104 155 98 167 87 178 75 184 61 184 45Z"/>
<text fill-opacity="0" xml:space="preserve" transform="matrix(1 0 -0 1 47.465627 294.40446)" font-size="32" font-family="LiberationSerif"><tspan y="0" x="16">.</tspan></text>
<path transform="matrix(.032,0,0,-.032,71.46562,294.40446)" d="M470 203C470 135 452 82 418 46 384 9 334-9 270-9 196-9 140 19 101 76 62 133 43 215 43 323 43 393 53 454 73 505 93 556 122 595 159 622 196 648 239 662 288 662 335 662 382 656 430 645V532H398L381 599C370 605 355 610 337 614 319 618 302 621 288 621 240 621 203 598 177 552 150 506 135 438 133 350 186 378 239 392 293 392 350 392 394 375 424 343 454 311 470 264 470 203ZM268 29C307 29 335 41 353 67 371 92 380 134 380 194 380 247 371 285 355 309 338 333 311 345 275 345 230 345 183 337 133 321 133 221 144 148 166 100 188 52 222 29 268 29Z"/>
<text fill-opacity="0" xml:space="preserve" transform="matrix(1 0 -0 1 47.465627 294.40446)" font-size="32" font-family="LiberationSerif"><tspan y="0" x="24">6</tspan></text>
<g clip-path="url(#clip_4)">
<path transform="matrix(1,0,0,-1,0,691.10879)" stroke-width=".6" stroke-linecap="square" stroke-linejoin="round" fill="none" stroke="#d9d9d9" d="M94.46562 530.51828H1011.86959"/>
</g>
<path transform="matrix(1,0,0,-1,0,691.10879)" d="M94.46562 530.51828H90.96562"/>
<path transform="matrix(1,0,0,-1,0,691.10879)" stroke-width=".8" stroke-linecap="butt" stroke-linejoin="round" fill="none" stroke="#000000" d="M94.46562 530.51828H90.96562"/>
<path transform="matrix(.032,0,0,-.032,47.465627,171.69208)" d="M462 330C462 104 390-9 247-9 178-9 126 19 91 77 55 135 38 219 38 330 38 438 55 521 91 579 126 636 179 665 251 665 319 665 372 636 408 580 444 523 462 440 462 330ZM372 330C372 434 362 510 342 556 322 602 291 626 247 626 205 626 174 604 156 560 137 516 128 440 128 330 128 219 137 141 156 96 175 51 205 29 247 29 290 29 322 52 342 100 362 147 372 224 372 330Z"/>
<text fill-opacity="0" xml:space="preserve" transform="matrix(1 0 -0 1 47.465627 171.69208)" font-size="32" font-family="LiberationSerif"><tspan y="0" x="0">0</tspan></text>
<path transform="matrix(.032,0,0,-.032,63.465627,171.69208)" d="M184 45C184 29 178 15 167 4 155-7 141-13 125-13 108-13 94-7 83 4 71 15 66 29 66 45 66 61 71 75 83 87 94 98 108 104 125 104 141 104 155 98 167 87 178 75 184 61 184 45Z"/>
<text fill-opacity="0" xml:space="preserve" transform="matrix(1 0 -0 1 47.465627 171.69208)" font-size="32" font-family="LiberationSerif"><tspan y="0" x="16">.</tspan></text>
<path transform="matrix(.032,0,0,-.032,71.46562,171.69208)" d="M442 495C442 459 433 428 416 404 398 379 375 360 345 347 382 333 411 312 431 283 451 253 462 218 462 177 462 115 444 68 409 37 374 6 320-9 247-9 107-9 38 53 38 177 38 220 48 256 69 284 90 312 118 333 154 347 125 360 102 379 84 404 66 428 58 459 58 495 58 549 74 590 107 620 140 650 188 665 251 665 311 665 358 650 392 621 425 591 442 549 442 495ZM374 177C374 229 363 266 343 290 323 313 291 325 247 325 204 325 173 313 154 291 135 269 126 231 126 177 126 121 135 83 155 61 174 39 205 29 247 29 290 29 322 40 343 63 363 85 374 123 374 177ZM354 495C354 540 345 573 327 594 309 615 283 626 248 626 213 626 187 615 171 595 154 574 146 541 146 495 146 449 154 417 170 397 186 377 212 368 248 368 284 368 311 378 328 398 345 418 354 450 354 495Z"/>
<text fill-opacity="0" xml:space="preserve" transform="matrix(1 0 -0 1 47.465627 171.69208)" font-size="32" font-family="LiberationSerif"><tspan y="0" x="24">8</tspan></text>
<g clip-path="url(#clip_5)">
<path transform="matrix(1,0,0,-1,0,691.10879)" stroke-width=".6" stroke-linecap="square" stroke-linejoin="round" fill="none" stroke="#d9d9d9" d="M94.46562 653.23068H1011.86959"/>
</g>
<path transform="matrix(1,0,0,-1,0,691.10879)" d="M94.46562 653.23068H90.96562"/>
<path transform="matrix(1,0,0,-1,0,691.10879)" stroke-width=".8" stroke-linecap="butt" stroke-linejoin="round" fill="none" stroke="#000000" d="M94.46562 653.23068H90.96562"/>
<path transform="matrix(.032,0,0,-.032,47.465627,48.979677)" d="M306 39 440 26V0H88V26L222 39V573L90 526V552L281 660H306V39Z"/>
<text fill-opacity="0" xml:space="preserve" transform="matrix(1 0 -0 1 47.465627 48.979677)" font-size="32" font-family="LiberationSerif"><tspan y="0" x="0">1</tspan></text>
<path transform="matrix(.032,0,0,-.032,63.465627,48.979677)" d="M184 45C184 29 178 15 167 4 155-7 141-13 125-13 108-13 94-7 83 4 71 15 66 29 66 45 66 61 71 75 83 87 94 98 108 104 125 104 141 104 155 98 167 87 178 75 184 61 184 45Z"/>
<text fill-opacity="0" xml:space="preserve" transform="matrix(1 0 -0 1 47.465627 48.979677)" font-size="32" font-family="LiberationSerif"><tspan y="0" x="16">.</tspan></text>
<path transform="matrix(.032,0,0,-.032,71.46562,48.979677)" d="M462 330C462 104 390-9 247-9 178-9 126 19 91 77 55 135 38 219 38 330 38 438 55 521 91 579 126 636 179 665 251 665 319 665 372 636 408 580 444 523 462 440 462 330ZM372 330C372 434 362 510 342 556 322 602 291 626 247 626 205 626 174 604 156 560 137 516 128 440 128 330 128 219 137 141 156 96 175 51 205 29 247 29 290 29 322 52 342 100 362 147 372 224 372 330Z"/>
<text fill-opacity="0" xml:space="preserve" transform="matrix(1 0 -0 1 47.465627 48.979677)" font-size="32" font-family="LiberationSerif"><tspan y="0" x="24">0</tspan></text>
<path transform="matrix(0,-.040000004,-.040000004,-0,34.95,434.28096)" d="M68 176H100L117 88C129 72 149 59 179 47 208 35 237 30 266 30 311 30 346 41 372 65 398 88 411 120 411 161 411 184 406 203 396 219 386 234 373 247 357 258 341 268 322 277 302 285 281 292 260 299 239 307 217 314 196 322 176 332 155 341 137 353 121 367 105 381 92 398 82 419 72 439 67 465 67 495 67 547 86 587 125 617 164 647 218 662 288 662 340 662 398 655 460 641V505H428L411 585C377 609 336 621 288 621 244 621 210 612 186 594 161 576 149 552 149 521 149 499 154 482 164 468 174 454 187 442 203 432 219 422 237 413 258 406 278 399 299 392 321 384 343 376 364 368 385 358 405 348 424 336 440 322 456 307 469 289 479 268 489 246 494 220 494 189 494 125 474 76 436 42 397 8 341-9 269-9 233-9 198-6 162 0 126 6 95 14 68 25V176Z"/>
<text fill-opacity="0" xml:space="preserve" transform="matrix(0 -1 1 0 34.95 434.28096)" font-size="40" font-family="LiberationSerif"><tspan y="0" x="0">S</tspan></text>
<path transform="matrix(0,-.040000004,-.040000004,-0,34.95,412.04096)" d="M153 131C153 75 179 47 231 47 271 47 309 52 344 62V425L275 437V459H425V34L483 22V0H349L345 37C322 24 295 13 265 4 235-4 209-9 189-9 111-9 72 35 72 125V425L13 437V459H153V131Z"/>
<text fill-opacity="0" xml:space="preserve" transform="matrix(0 -1 1 0 34.95 434.28096)" font-size="40" font-family="LiberationSerif"><tspan y="0" x="22.240002">u</tspan></text>
<path transform="matrix(0,-.040000004,-.040000004,-0,34.95,392.04096)" d="M413 28C397 16 375 6 347 0 319-6 290-9 261-9 112-9 38 71 38 233 38 309 57 368 95 409 133 450 187 471 258 471 302 471 350 466 402 456V328H375L354 409C326 424 294 432 257 432 169 432 126 365 126 233 126 163 139 114 166 85 192 55 233 41 289 41 336 41 377 46 413 57V28Z"/>
<text fill-opacity="0" xml:space="preserve" transform="matrix(0 -1 1 0 34.95 434.28096)" font-size="40" font-family="LiberationSerif"><tspan y="0" x="42.24">c</tspan></text>
<path transform="matrix(0,-.040000004,-.040000004,-0,34.95,374.28096)" d="M413 28C397 16 375 6 347 0 319-6 290-9 261-9 112-9 38 71 38 233 38 309 57 368 95 409 133 450 187 471 258 471 302 471 350 466 402 456V328H375L354 409C326 424 294 432 257 432 169 432 126 365 126 233 126 163 139 114 166 85 192 55 233 41 289 41 336 41 377 46 413 57V28Z"/>
<text fill-opacity="0" xml:space="preserve" transform="matrix(0 -1 1 0 34.95 434.28096)" font-size="40" font-family="LiberationSerif"><tspan y="0" x="60.000005">c</tspan></text>
<path transform="matrix(0,-.040000004,-.040000004,-0,34.95,356.52095)" d="M127 231V222C127 177 132 142 142 117 152 92 167 73 188 60 208 47 235 41 269 41 286 41 307 42 331 45 355 48 375 51 391 55V28C375 18 354 9 327 2 300-5 273-9 245-9 173-9 121 10 88 48 55 86 39 147 39 233 39 313 55 372 89 412 123 451 171 471 233 471 350 471 409 404 409 271V231H127ZM233 432C199 432 173 418 155 391 137 363 128 323 128 270H324C324 328 316 369 301 394 286 419 263 432 233 432Z"/>
<text fill-opacity="0" xml:space="preserve" transform="matrix(0 -1 1 0 34.95 434.28096)" font-size="40" font-family="LiberationSerif"><tspan y="0" x="77.76001">e</tspan></text>
<path transform="matrix(0,-.040000004,-.040000004,-0,34.95,338.76094)" d="M353 129C353 83 338 49 310 26 281 2 238-9 182-9 159-9 134-6 106-2 78 2 57 7 42 13V126H64L88 62C112 40 144 29 183 29 246 29 278 56 278 110 278 149 253 177 203 195L160 209C126 219 102 230 87 241 72 252 61 266 53 282 45 298 41 318 41 341 41 381 54 412 82 436 110 459 147 471 194 471 227 471 269 466 320 456V356H297L276 409C258 424 231 432 195 432 168 432 148 425 134 412 120 399 114 382 114 360 114 341 120 325 132 313 144 300 163 289 189 281 237 265 268 253 283 245 297 237 310 228 320 218 330 207 338 195 344 181 350 167 353 149 353 129Z"/>
<text fill-opacity="0" xml:space="preserve" transform="matrix(0 -1 1 0 34.95 434.28096)" font-size="40" font-family="LiberationSerif"><tspan y="0" x="95.52001">s</tspan></text>
<path transform="matrix(0,-.040000004,-.040000004,-0,34.95,323.20094)" d="M353 129C353 83 338 49 310 26 281 2 238-9 182-9 159-9 134-6 106-2 78 2 57 7 42 13V126H64L88 62C112 40 144 29 183 29 246 29 278 56 278 110 278 149 253 177 203 195L160 209C126 219 102 230 87 241 72 252 61 266 53 282 45 298 41 318 41 341 41 381 54 412 82 436 110 459 147 471 194 471 227 471 269 466 320 456V356H297L276 409C258 424 231 432 195 432 168 432 148 425 134 412 120 399 114 382 114 360 114 341 120 325 132 313 144 300 163 289 189 281 237 265 268 253 283 245 297 237 310 228 320 218 330 207 338 195 344 181 350 167 353 149 353 129Z"/>
<text fill-opacity="0" xml:space="preserve" transform="matrix(0 -1 1 0 34.95 434.28096)" font-size="40" font-family="LiberationSerif"><tspan y="0" x="111.08002">s</tspan></text>
<path transform="matrix(0,-.040000004,-.040000004,-0,34.95,307.64094)" d=""/>
<text fill-opacity="0" xml:space="preserve" transform="matrix(0 -1 1 0 34.95 434.28096)" font-size="40" font-family="LiberationSerif"><tspan y="0" x="126.640018"> </tspan></text>
<path transform="matrix(0,-.040000004,-.040000004,-0,34.95,297.64094)" d="M207 287V39L306 26V0H35V26L113 39V616L29 629V655H312C394 655 454 641 493 613 532 585 552 541 552 480 552 436 540 399 516 367 492 335 459 313 417 301L595 39 666 26V0H509L325 287H207ZM455 473C455 523 442 558 418 579 394 600 351 611 291 611H207V331H293C351 331 393 341 418 363 442 385 455 421 455 473Z"/>
<text fill-opacity="0" xml:space="preserve" transform="matrix(0 -1 1 0 34.95 434.28096)" font-size="40" font-family="LiberationSerif"><tspan y="0" x="136.64002">R</tspan></text>
<path transform="matrix(0,-.040000004,-.040000004,-0,34.95,270.96095)" d="M227 469C277 469 313 458 337 438 361 418 373 386 373 344V34L430 22V0H304L295 46C257 9 210-9 153-9 74-9 35 36 35 127 35 157 41 183 53 203 65 223 84 238 110 249 136 259 173 265 223 266L292 268V340C292 371 286 394 274 409 262 424 245 432 221 432 188 432 158 424 132 409L115 352H88V452C140 463 187 469 227 469ZM292 234 228 232C184 230 155 221 139 206 123 191 116 166 116 130 116 72 139 44 186 44 208 44 227 46 243 51 259 56 276 63 292 71V234Z"/>
<text fill-opacity="0" xml:space="preserve" transform="matrix(0 -1 1 0 34.95 434.28096)" font-size="40" font-family="LiberationSerif"><tspan y="0" x="163.32003">a</tspan></text>
<path transform="matrix(0,-.040000004,-.040000004,-0,34.95,253.20093)" d="M163-9C131-9 108 0 93 18 77 36 70 62 70 96V418H10V440L71 459 120 563H151V459H256V418H151V105C151 83 155 67 165 57 175 46 187 41 203 41 221 41 244 43 272 49V17C260 9 244 2 222-2 200-6 181-9 163-9Z"/>
<text fill-opacity="0" xml:space="preserve" transform="matrix(0 -1 1 0 34.95 434.28096)" font-size="40" font-family="LiberationSerif"><tspan y="0" x="181.08002">t</tspan></text>
<path transform="matrix(0,-.040000004,-.040000004,-0,34.95,242.08094)" d="M127 231V222C127 177 132 142 142 117 152 92 167 73 188 60 208 47 235 41 269 41 286 41 307 42 331 45 355 48 375 51 391 55V28C375 18 354 9 327 2 300-5 273-9 245-9 173-9 121 10 88 48 55 86 39 147 39 233 39 313 55 372 89 412 123 451 171 471 233 471 350 471 409 404 409 271V231H127ZM233 432C199 432 173 418 155 391 137 363 128 323 128 270H324C324 328 316 369 301 394 286 419 263 432 233 432Z"/>
<text fill-opacity="0" xml:space="preserve" transform="matrix(0 -1 1 0 34.95 434.28096)" font-size="40" font-family="LiberationSerif"><tspan y="0" x="192.20001">e</tspan></text>
<g clip-path="url(#clip_6)">
<path transform="matrix(1,0,0,-1,0,691.10879)" d="M136.1658 39.66875H205.14354V536.04037H136.1658Z" fill="#4882a6"/>
</g>
<g clip-path="url(#clip_7)">
<path transform="matrix(1,0,0,-1,0,691.10879)" d="M449.701 39.66875H518.6787V521.9284H449.701Z" fill="#4882a6"/>
</g>
<g clip-path="url(#clip_8)">
<path transform="matrix(1,0,0,-1,0,691.10879)" d="M763.23617 39.66875H832.2139V518.8606H763.23617Z" fill="#4882a6"/>
</g>
<g clip-path="url(#clip_9)">
<path transform="matrix(1,0,0,-1,0,691.10879)" d="M205.14354 39.66875H274.12129V132.00981H205.14354Z" fill="#6d247a"/>
</g>
<g clip-path="url(#clip_10)">
<path transform="matrix(1,0,0,-1,0,691.10879)" d="M518.6787 39.66875H587.6565V369.1515H518.6787Z" fill="#6d247a"/>
</g>
<g clip-path="url(#clip_11)">
<path transform="matrix(1,0,0,-1,0,691.10879)" d="M832.2139 39.66875H901.19168V471.00279H832.2139Z" fill="#6d247a"/>
</g>
<g clip-path="url(#clip_12)">
<path transform="matrix(1,0,0,-1,0,691.10879)" d="M274.12129 39.66875H343.09904V121.88605H274.12129Z" fill="#e15e45"/>
</g>
<g clip-path="url(#clip_13)">
<path transform="matrix(1,0,0,-1,0,691.10879)" d="M587.6565 39.66875H656.6342V56.23492H587.6565Z" fill="#e15e45"/>
</g>
<g clip-path="url(#clip_14)">
<path transform="matrix(1,0,0,-1,0,691.10879)" d="M901.19168 39.66875H970.1694V63.597665H901.19168Z" fill="#e15e45"/>
</g>
<g clip-path="url(#clip_15)">
<path transform="matrix(1,0,0,-1,0,691.10879)" stroke-width="1.5" stroke-linecap="butt" stroke-linejoin="round" fill="none" stroke="#000000" d="M170.65468 480.82173V591.259"/>
<path transform="matrix(1,0,0,-1,0,691.10879)" stroke-width="1.5" stroke-linecap="butt" stroke-linejoin="round" fill="none" stroke="#000000" d="M484.18986 439.57386V604.28298"/>
<path transform="matrix(1,0,0,-1,0,691.10879)" stroke-width="1.5" stroke-linecap="butt" stroke-linejoin="round" fill="none" stroke="#000000" d="M797.72506 487.65757V550.0636"/>
</g>
<g clip-path="url(#clip_16)">
<path transform="matrix(1,0,0,-1,0,691.10879)" d="M174.65468 480.82173H166.65468" fill="#1f77b4"/>
<path transform="matrix(1,0,0,-1,0,691.10879)" stroke-width="1" stroke-linecap="butt" stroke-linejoin="round" fill="none" stroke="#000000" d="M174.65468 480.82173H166.65468"/>
<path transform="matrix(1,0,0,-1,0,691.10879)" d="M488.18986 439.57386H480.18986" fill="#1f77b4"/>
<path transform="matrix(1,0,0,-1,0,691.10879)" stroke-width="1" stroke-linecap="butt" stroke-linejoin="round" fill="none" stroke="#000000" d="M488.18986 439.57386H480.18986"/>
<path transform="matrix(1,0,0,-1,0,691.10879)" d="M801.72506 487.65757H793.72506" fill="#1f77b4"/>
<path transform="matrix(1,0,0,-1,0,691.10879)" stroke-width="1" stroke-linecap="butt" stroke-linejoin="round" fill="none" stroke="#000000" d="M801.72506 487.65757H793.72506"/>
</g>
<g clip-path="url(#clip_17)">
<path transform="matrix(1,0,0,-1,0,691.10879)" d="M174.65468 591.259H166.65468" fill="#1f77b4"/>
<path transform="matrix(1,0,0,-1,0,691.10879)" stroke-width="1" stroke-linecap="butt" stroke-linejoin="round" fill="none" stroke="#000000" d="M174.65468 591.259H166.65468"/>
<path transform="matrix(1,0,0,-1,0,691.10879)" d="M488.18986 604.28298H480.18986" fill="#1f77b4"/>
<path transform="matrix(1,0,0,-1,0,691.10879)" stroke-width="1" stroke-linecap="butt" stroke-linejoin="round" fill="none" stroke="#000000" d="M488.18986 604.28298H480.18986"/>
<path transform="matrix(1,0,0,-1,0,691.10879)" d="M801.72506 550.0636H793.72506" fill="#1f77b4"/>
<path transform="matrix(1,0,0,-1,0,691.10879)" stroke-width="1" stroke-linecap="butt" stroke-linejoin="round" fill="none" stroke="#000000" d="M801.72506 550.0636H793.72506"/>
</g>
<g clip-path="url(#clip_18)">
<path transform="matrix(1,0,0,-1,0,691.10879)" stroke-width="1.5" stroke-linecap="butt" stroke-linejoin="round" fill="none" stroke="#000000" d="M239.63242 44.361536V219.6581"/>
<path transform="matrix(1,0,0,-1,0,691.10879)" stroke-width="1.5" stroke-linecap="butt" stroke-linejoin="round" fill="none" stroke="#000000" d="M553.1676 287.10313V451.19987"/>
<path transform="matrix(1,0,0,-1,0,691.10879)" stroke-width="1.5" stroke-linecap="butt" stroke-linejoin="round" fill="none" stroke="#000000" d="M866.70278 402.73927V539.2663"/>
</g>
<g clip-path="url(#clip_19)">
<path transform="matrix(1,0,0,-1,0,691.10879)" d="M243.63242 44.361536H235.63242" fill="#1f77b4"/>
<path transform="matrix(1,0,0,-1,0,691.10879)" stroke-width="1" stroke-linecap="butt" stroke-linejoin="round" fill="none" stroke="#000000" d="M243.63242 44.361536H235.63242"/>
<path transform="matrix(1,0,0,-1,0,691.10879)" d="M557.1676 287.10313H549.1676" fill="#1f77b4"/>
<path transform="matrix(1,0,0,-1,0,691.10879)" stroke-width="1" stroke-linecap="butt" stroke-linejoin="round" fill="none" stroke="#000000" d="M557.1676 287.10313H549.1676"/>
<path transform="matrix(1,0,0,-1,0,691.10879)" d="M870.70278 402.73927H862.70278" fill="#1f77b4"/>
<path transform="matrix(1,0,0,-1,0,691.10879)" stroke-width="1" stroke-linecap="butt" stroke-linejoin="round" fill="none" stroke="#000000" d="M870.70278 402.73927H862.70278"/>
</g>
<g clip-path="url(#clip_20)">
<path transform="matrix(1,0,0,-1,0,691.10879)" d="M243.63242 219.6581H235.63242" fill="#1f77b4"/>
<path transform="matrix(1,0,0,-1,0,691.10879)" stroke-width="1" stroke-linecap="butt" stroke-linejoin="round" fill="none" stroke="#000000" d="M243.63242 219.6581H235.63242"/>
<path transform="matrix(1,0,0,-1,0,691.10879)" d="M557.1676 451.19987H549.1676" fill="#1f77b4"/>
<path transform="matrix(1,0,0,-1,0,691.10879)" stroke-width="1" stroke-linecap="butt" stroke-linejoin="round" fill="none" stroke="#000000" d="M557.1676 451.19987H549.1676"/>
<path transform="matrix(1,0,0,-1,0,691.10879)" d="M870.70278 539.2663H862.70278" fill="#1f77b4"/>
<path transform="matrix(1,0,0,-1,0,691.10879)" stroke-width="1" stroke-linecap="butt" stroke-linejoin="round" fill="none" stroke="#000000" d="M870.70278 539.2663H862.70278"/>
</g>
<g clip-path="url(#clip_21)">
<path transform="matrix(1,0,0,-1,0,691.10879)" stroke-width="1.5" stroke-linecap="butt" stroke-linejoin="round" fill="none" stroke="#000000" d="M308.61018 58.35942V185.41268"/>
<path transform="matrix(1,0,0,-1,0,691.10879)" stroke-width="1.5" stroke-linecap="butt" stroke-linejoin="round" fill="none" stroke="#000000" d="M622.1453 39.66875V79.36036"/>
<path transform="matrix(1,0,0,-1,0,691.10879)" stroke-width="1.5" stroke-linecap="butt" stroke-linejoin="round" fill="none" stroke="#000000" d="M935.68057 52.030298V75.16503"/>
</g>
<g clip-path="url(#clip_22)">
<path transform="matrix(1,0,0,-1,0,691.10879)" d="M312.61018 58.35942H304.61018" fill="#1f77b4"/>
<path transform="matrix(1,0,0,-1,0,691.10879)" stroke-width="1" stroke-linecap="butt" stroke-linejoin="round" fill="none" stroke="#000000" d="M312.61018 58.35942H304.61018"/>
<path transform="matrix(1,0,0,-1,0,691.10879)" d="M626.1453 39.66875H618.1453" fill="#1f77b4"/>
<path transform="matrix(1,0,0,-1,0,691.10879)" stroke-width="1" stroke-linecap="butt" stroke-linejoin="round" fill="none" stroke="#000000" d="M626.1453 39.66875H618.1453"/>
<path transform="matrix(1,0,0,-1,0,691.10879)" d="M939.68057 52.030298H931.68057" fill="#1f77b4"/>
<path transform="matrix(1,0,0,-1,0,691.10879)" stroke-width="1" stroke-linecap="butt" stroke-linejoin="round" fill="none" stroke="#000000" d="M939.68057 52.030298H931.68057"/>
</g>
<g clip-path="url(#clip_23)">
<path transform="matrix(1,0,0,-1,0,691.10879)" d="M312.61018 185.41268H304.61018" fill="#1f77b4"/>
<path transform="matrix(1,0,0,-1,0,691.10879)" stroke-width="1" stroke-linecap="butt" stroke-linejoin="round" fill="none" stroke="#000000" d="M312.61018 185.41268H304.61018"/>
<path transform="matrix(1,0,0,-1,0,691.10879)" d="M626.1453 79.36036H618.1453" fill="#1f77b4"/>
<path transform="matrix(1,0,0,-1,0,691.10879)" stroke-width="1" stroke-linecap="butt" stroke-linejoin="round" fill="none" stroke="#000000" d="M626.1453 79.36036H618.1453"/>
<path transform="matrix(1,0,0,-1,0,691.10879)" d="M939.68057 75.16503H931.68057" fill="#1f77b4"/>
<path transform="matrix(1,0,0,-1,0,691.10879)" stroke-width="1" stroke-linecap="butt" stroke-linejoin="round" fill="none" stroke="#000000" d="M939.68057 75.16503H931.68057"/>
</g>
<path transform="matrix(1,0,0,-1,0,691.10879)" stroke-width=".8" stroke-linecap="square" stroke-miterlimit="10" stroke-linejoin="miter" fill="none" stroke="#000000" d="M94.46562 39.66875V683.90878"/>
<path transform="matrix(1,0,0,-1,0,691.10879)" stroke-width=".8" stroke-linecap="square" stroke-miterlimit="10" stroke-linejoin="miter" fill="none" stroke="#000000" d="M94.46562 39.66875H1011.86959"/>
<path transform="matrix(1,0,0,-1,0,691.10879)" d="M175.0051 619.1226H931.3301C935.86349 619.1226 938.1301 621.3893 938.1301 625.9226V670.6663C938.1301 675.1997 935.86349 677.4664 931.3301 677.4664H175.0051C170.47177 677.4664 168.2051 675.1997 168.2051 670.6663V625.9226C168.2051 621.3893 170.47177 619.1226 175.0051 619.1226Z" fill="#ffffff"/>
<path transform="matrix(1,0,0,-1,0,691.10879)" stroke-width="1" stroke-linecap="butt" stroke-miterlimit="10" stroke-linejoin="miter" fill="none" stroke="#cccccc" d="M175.0051 619.1226H931.3301C935.86349 619.1226 938.1301 621.3893 938.1301 625.9226V670.6663C938.1301 675.1997 935.86349 677.4664 931.3301 677.4664H175.0051C170.47177 677.4664 168.2051 675.1997 168.2051 670.6663V625.9226C168.2051 621.3893 170.47177 619.1226 175.0051 619.1226Z"/>
<path transform="matrix(1,0,0,-1,0,691.10879)" d="M181.8051 640.06637H249.8051V663.86636H181.8051Z" fill="#4882a6"/>
<path transform="matrix(.034,0,0,-.034,270.2051,51.04242)" d="M154 0V26L258 39V613H233C150 613 94 609 64 603L51 501H18V655H594V501H561L548 603C538 605 516 607 484 609 451 611 415 612 376 612H352V39L456 26V0H154Z"/>
<text fill-opacity="0" xml:space="preserve" transform="matrix(1 0 -0 1 270.2051 51.04242)" font-size="34" font-family="LiberationSerif"><tspan y="0" x="0">T</tspan></text>
<path transform="matrix(.034,0,0,-.034,290.9791,51.04242)" d="M154 0V26L258 39V613H233C150 613 94 609 64 603L51 501H18V655H594V501H561L548 603C538 605 516 607 484 609 451 611 415 612 376 612H352V39L456 26V0H154Z"/>
<text fill-opacity="0" xml:space="preserve" transform="matrix(1 0 -0 1 270.2051 51.04242)" font-size="34" font-family="LiberationSerif"><tspan y="0" x="20.774">T</tspan></text>
<path transform="matrix(.034,0,0,-.034,311.7531,51.04242)" d="M627 34C589 22 549 11 509 3 468-5 424-9 378-9 272-9 189 19 130 76 70 133 41 214 41 320 41 434 69 520 127 577 184 633 268 662 380 662 459 662 536 652 610 633V492H577L564 573C541 589 514 601 483 610 451 618 418 623 384 623 300 623 239 598 201 548 162 498 143 423 143 321 143 225 162 152 202 102 242 52 301 28 379 28 406 28 435 31 465 37 495 43 517 51 533 61V247L449 260V286H691V260L627 247V34Z"/>
<text fill-opacity="0" xml:space="preserve" transform="matrix(1 0 -0 1 270.2051 51.04242)" font-size="34" font-family="LiberationSerif"><tspan y="0" x="41.548">G</tspan></text>
<path transform="matrix(.034,0,0,-.034,336.30113,51.04242)" d="M68 176H100L117 88C129 72 149 59 179 47 208 35 237 30 266 30 311 30 346 41 372 65 398 88 411 120 411 161 411 184 406 203 396 219 386 234 373 247 357 258 341 268 322 277 302 285 281 292 260 299 239 307 217 314 196 322 176 332 155 341 137 353 121 367 105 381 92 398 82 419 72 439 67 465 67 495 67 547 86 587 125 617 164 647 218 662 288 662 340 662 398 655 460 641V505H428L411 585C377 609 336 621 288 621 244 621 210 612 186 594 161 576 149 552 149 521 149 499 154 482 164 468 174 454 187 442 203 432 219 422 237 413 258 406 278 399 299 392 321 384 343 376 364 368 385 358 405 348 424 336 440 322 456 307 469 289 479 268 489 246 494 220 494 189 494 125 474 76 436 42 397 8 341-9 269-9 233-9 198-6 162 0 126 6 95 14 68 25V176Z"/>
<text fill-opacity="0" xml:space="preserve" transform="matrix(1 0 -0 1 270.2051 51.04242)" font-size="34" font-family="LiberationSerif"><tspan y="0" x="66.096">S</tspan></text>
<path transform="matrix(1,0,0,-1,0,691.10879)" d="M382.4051 640.06637H450.4051V663.86636H382.4051Z" fill="#6d247a"/>
<path transform="matrix(.034,0,0,-.034,470.8051,51.04242)" d="M564 616 476 629V655H699V629L615 616V0H568L164 589V39L252 26V0H29V26L113 39V616L29 629V655H227L564 170V616Z"/>
<text fill-opacity="0" xml:space="preserve" transform="matrix(1 0 -0 1 470.8051 51.04242)" font-size="34" font-family="LiberationSerif"><tspan y="0" x="0">N</tspan></text>
<path transform="matrix(.034,0,0,-.034,495.35313,51.04242)" d="M127 231V222C127 177 132 142 142 117 152 92 167 73 188 60 208 47 235 41 269 41 286 41 307 42 331 45 355 48 375 51 391 55V28C375 18 354 9 327 2 300-5 273-9 245-9 173-9 121 10 88 48 55 86 39 147 39 233 39 313 55 372 89 412 123 451 171 471 233 471 350 471 409 404 409 271V231H127ZM233 432C199 432 173 418 155 391 137 363 128 323 128 270H324C324 328 316 369 301 394 286 419 263 432 233 432Z"/>
<text fill-opacity="0" xml:space="preserve" transform="matrix(1 0 -0 1 470.8051 51.04242)" font-size="34" font-family="LiberationSerif"><tspan y="0" x="24.548003">e</tspan></text>
<path transform="matrix(.034,0,0,-.034,510.44914,51.04242)" d="M488 22V0H280V22L341 33 235 196 111 32 174 22V0H9V22L62 30 213 229 80 425 26 437V459H234V437L173 424 261 292 363 425 300 437V459H465V437L412 427 283 260 434 32 488 22Z"/>
<text fill-opacity="0" xml:space="preserve" transform="matrix(1 0 -0 1 470.8051 51.04242)" font-size="34" font-family="LiberationSerif"><tspan y="0" x="39.644006">x</tspan></text>
<path transform="matrix(.034,0,0,-.034,527.4491,51.04242)" d="M163-9C131-9 108 0 93 18 77 36 70 62 70 96V418H10V440L71 459 120 563H151V459H256V418H151V105C151 83 155 67 165 57 175 46 187 41 203 41 221 41 244 43 272 49V17C260 9 244 2 222-2 200-6 181-9 163-9Z"/>
<text fill-opacity="0" xml:space="preserve" transform="matrix(1 0 -0 1 470.8051 51.04242)" font-size="34" font-family="LiberationSerif"><tspan y="0" x="56.644006">t</tspan></text>
<path transform="matrix(.034,0,0,-.034,536.9011,51.04242)" d=""/>
<text fill-opacity="0" xml:space="preserve" transform="matrix(1 0 -0 1 470.8051 51.04242)" font-size="34" font-family="LiberationSerif"><tspan y="0" x="66.09601"> </tspan></text>
<path transform="matrix(.034,0,0,-.034,545.4011,51.04242)" d="M68 176H100L117 88C129 72 149 59 179 47 208 35 237 30 266 30 311 30 346 41 372 65 398 88 411 120 411 161 411 184 406 203 396 219 386 234 373 247 357 258 341 268 322 277 302 285 281 292 260 299 239 307 217 314 196 322 176 332 155 341 137 353 121 367 105 381 92 398 82 419 72 439 67 465 67 495 67 547 86 587 125 617 164 647 218 662 288 662 340 662 398 655 460 641V505H428L411 585C377 609 336 621 288 621 244 621 210 612 186 594 161 576 149 552 149 521 149 499 154 482 164 468 174 454 187 442 203 432 219 422 237 413 258 406 278 399 299 392 321 384 343 376 364 368 385 358 405 348 424 336 440 322 456 307 469 289 479 268 489 246 494 220 494 189 494 125 474 76 436 42 397 8 341-9 269-9 233-9 198-6 162 0 126 6 95 14 68 25V176Z"/>
<text fill-opacity="0" xml:space="preserve" transform="matrix(1 0 -0 1 470.8051 51.04242)" font-size="34" font-family="LiberationSerif"><tspan y="0" x="74.59601">S</tspan></text>
<path transform="matrix(.034,0,0,-.034,564.3051,51.04242)" d="M153 131C153 75 179 47 231 47 271 47 309 52 344 62V425L275 437V459H425V34L483 22V0H349L345 37C322 24 295 13 265 4 235-4 209-9 189-9 111-9 72 35 72 125V425L13 437V459H153V131Z"/>
<text fill-opacity="0" xml:space="preserve" transform="matrix(1 0 -0 1 470.8051 51.04242)" font-size="34" font-family="LiberationSerif"><tspan y="0" x="93.50001">u</tspan></text>
<path transform="matrix(.034,0,0,-.034,581.3051,51.04242)" d="M374 242C374 302 363 346 343 376 322 405 290 420 246 420 226 420 207 418 189 415 170 411 156 408 148 404V40C175 34 208 32 246 32 290 32 323 49 343 85 363 120 374 172 374 242ZM67 660 0 672V694H148V530C148 512 147 479 145 433 177 458 218 471 268 471 330 471 378 452 412 414 445 376 462 318 462 242 462 160 443 97 407 55 370 12 317-9 248-9 220-9 189-6 155 0 121 6 92 14 67 24V660Z"/>
<text fill-opacity="0" xml:space="preserve" transform="matrix(1 0 -0 1 470.8051 51.04242)" font-size="34" font-family="LiberationSerif"><tspan y="0" x="110.50001">b</tspan></text>
<path transform="matrix(.034,0,0,-.034,598.3051,51.04242)" d="M425 314C425 261 409 221 377 194 345 167 300 154 241 154 214 154 189 156 167 161L136 97C137 91 143 86 155 81 167 76 181 74 199 74H335C384 74 421 63 445 42 469 20 481-8 481-46 481-80 471-109 452-135 433-160 405-180 368-194 331-208 287-215 235-215 172-215 124-205 92-186 59-166 43-139 43-104 43-86 48-69 60-53 72-36 93-17 125 5 106 11 90 21 78 36 65 51 59 67 59 85L136 172C84 196 59 243 59 314 59 364 74 402 106 430 138 457 184 471 245 471 257 471 272 469 291 467 310 465 325 462 335 459L443 513 460 492 392 422C414 397 425 361 425 314ZM405-61C405-42 399-27 388-17 376-7 359-2 336-2H158C144-14 133-29 125-47 116-65 112-81 112-97 112-125 122-145 142-157 162-169 193-176 235-176 289-176 330-165 360-145 390-125 405-97 405-61ZM242 191C277 191 302 201 317 221 332 241 340 272 340 314 340 357 332 388 317 406 301 424 277 434 243 434 209 434 184 424 168 406 152 387 144 356 144 314 144 271 151 240 167 220 183 200 208 191 242 191Z"/>
<text fill-opacity="0" xml:space="preserve" transform="matrix(1 0 -0 1 470.8051 51.04242)" font-size="34" font-family="LiberationSerif"><tspan y="0" x="127.50001">g</tspan></text>
<path transform="matrix(.034,0,0,-.034,615.3051,51.04242)" d="M462 232C462 71 390-9 247-9 178-9 126 11 91 52 55 93 38 153 38 232 38 309 55 368 91 409 126 450 179 471 251 471 320 471 372 451 408 411 444 371 462 311 462 232ZM374 232C374 302 363 352 343 384 323 416 291 432 247 432 204 432 173 416 154 386 135 356 126 304 126 232 126 158 135 105 155 75 174 44 205 29 247 29 290 29 322 45 343 77 363 109 374 160 374 232Z"/>
<text fill-opacity="0" xml:space="preserve" transform="matrix(1 0 -0 1 470.8051 51.04242)" font-size="34" font-family="LiberationSerif"><tspan y="0" x="144.5">o</tspan></text>
<path transform="matrix(.034,0,0,-.034,632.3051,51.04242)" d="M227 469C277 469 313 458 337 438 361 418 373 386 373 344V34L430 22V0H304L295 46C257 9 210-9 153-9 74-9 35 36 35 127 35 157 41 183 53 203 65 223 84 238 110 249 136 259 173 265 223 266L292 268V340C292 371 286 394 274 409 262 424 245 432 221 432 188 432 158 424 132 409L115 352H88V452C140 463 187 469 227 469ZM292 234 228 232C184 230 155 221 139 206 123 191 116 166 116 130 116 72 139 44 186 44 208 44 227 46 243 51 259 56 276 63 292 71V234Z"/>
<text fill-opacity="0" xml:space="preserve" transform="matrix(1 0 -0 1 470.8051 51.04242)" font-size="34" font-family="LiberationSerif"><tspan y="0" x="161.5">a</tspan></text>
<path transform="matrix(.034,0,0,-.034,647.4011,51.04242)" d="M179 34 258 22V0H20V22L98 34V660L20 672V694H179V34Z"/>
<text fill-opacity="0" xml:space="preserve" transform="matrix(1 0 -0 1 470.8051 51.04242)" font-size="34" font-family="LiberationSerif"><tspan y="0" x="176.59601">l</tspan></text>
<path transform="matrix(1,0,0,-1,0,691.10879)" d="M684.0676 640.06637H752.0676V663.86636H684.0676Z" fill="#e15e45"/>
<path transform="matrix(.034,0,0,-.034,772.4676,51.04242)" d="M564 616 476 629V655H699V629L615 616V0H568L164 589V39L252 26V0H29V26L113 39V616L29 629V655H227L564 170V616Z"/>
<text fill-opacity="0" xml:space="preserve" transform="matrix(1 0 -0 1 772.4676 51.04242)" font-size="34" font-family="LiberationSerif"><tspan y="0" x="0">N</tspan></text>
<path transform="matrix(.034,0,0,-.034,797.01559,51.04242)" d="M462 232C462 71 390-9 247-9 178-9 126 11 91 52 55 93 38 153 38 232 38 309 55 368 91 409 126 450 179 471 251 471 320 471 372 451 408 411 444 371 462 311 462 232ZM374 232C374 302 363 352 343 384 323 416 291 432 247 432 204 432 173 416 154 386 135 356 126 304 126 232 126 158 135 105 155 75 174 44 205 29 247 29 290 29 322 45 343 77 363 109 374 160 374 232Z"/>
<text fill-opacity="0" xml:space="preserve" transform="matrix(1 0 -0 1 772.4676 51.04242)" font-size="34" font-family="LiberationSerif"><tspan y="0" x="24.548003">o</tspan></text>
<path transform="matrix(.034,0,0,-.034,814.0156,51.04242)" d=""/>
<text fill-opacity="0" xml:space="preserve" transform="matrix(1 0 -0 1 772.4676 51.04242)" font-size="34" font-family="LiberationSerif"><tspan y="0" x="41.548006"> </tspan></text>
<path transform="matrix(.034,0,0,-.034,822.5156,51.04242)" d="M419 461C419 515 406 553 381 576 356 599 314 611 255 611H207V301H258C312 301 353 313 379 338 405 363 419 404 419 461ZM207 257V39L311 26V0H35V26L113 39V616L29 629V655H276C436 655 516 590 516 462 516 394 495 343 455 309 415 274 357 257 281 257H207Z"/>
<text fill-opacity="0" xml:space="preserve" transform="matrix(1 0 -0 1 772.4676 51.04242)" font-size="34" font-family="LiberationSerif"><tspan y="0" x="50.048006">P</tspan></text>
<path transform="matrix(.034,0,0,-.034,841.4196,51.04242)" d="M127 231V222C127 177 132 142 142 117 152 92 167 73 188 60 208 47 235 41 269 41 286 41 307 42 331 45 355 48 375 51 391 55V28C375 18 354 9 327 2 300-5 273-9 245-9 173-9 121 10 88 48 55 86 39 147 39 233 39 313 55 372 89 412 123 451 171 471 233 471 350 471 409 404 409 271V231H127ZM233 432C199 432 173 418 155 391 137 363 128 323 128 270H324C324 328 316 369 301 394 286 419 263 432 233 432Z"/>
<text fill-opacity="0" xml:space="preserve" transform="matrix(1 0 -0 1 772.4676 51.04242)" font-size="34" font-family="LiberationSerif"><tspan y="0" x="68.952">e</tspan></text>
<path transform="matrix(.034,0,0,-.034,856.5156,51.04242)" d="M158 422C183 436 210 447 238 457 266 466 290 471 309 471 349 471 379 459 399 436 419 413 429 380 429 336V34L485 22V0H287V22L348 34V327C348 354 341 375 328 391 315 406 295 414 267 414 237 414 201 409 159 400V34L221 22V0H23V22L78 34V425L23 437V459H154L158 422Z"/>
<text fill-opacity="0" xml:space="preserve" transform="matrix(1 0 -0 1 772.4676 51.04242)" font-size="34" font-family="LiberationSerif"><tspan y="0" x="84.048007">n</tspan></text>
<path transform="matrix(.034,0,0,-.034,873.5156,51.04242)" d="M227 469C277 469 313 458 337 438 361 418 373 386 373 344V34L430 22V0H304L295 46C257 9 210-9 153-9 74-9 35 36 35 127 35 157 41 183 53 203 65 223 84 238 110 249 136 259 173 265 223 266L292 268V340C292 371 286 394 274 409 262 424 245 432 221 432 188 432 158 424 132 409L115 352H88V452C140 463 187 469 227 469ZM292 234 228 232C184 230 155 221 139 206 123 191 116 166 116 130 116 72 139 44 186 44 208 44 227 46 243 51 259 56 276 63 292 71V234Z"/>
<text fill-opacity="0" xml:space="preserve" transform="matrix(1 0 -0 1 772.4676 51.04242)" font-size="34" font-family="LiberationSerif"><tspan y="0" x="101.048007">a</tspan></text>
<path transform="matrix(.034,0,0,-.034,888.6116,51.04242)" d="M179 34 258 22V0H20V22L98 34V660L20 672V694H179V34Z"/>
<text fill-opacity="0" xml:space="preserve" transform="matrix(1 0 -0 1 772.4676 51.04242)" font-size="34" font-family="LiberationSerif"><tspan y="0" x="116.144008">l</tspan></text>
<path transform="matrix(.034,0,0,-.034,898.0636,51.04242)" d="M163-9C131-9 108 0 93 18 77 36 70 62 70 96V418H10V440L71 459 120 563H151V459H256V418H151V105C151 83 155 67 165 57 175 46 187 41 203 41 221 41 244 43 272 49V17C260 9 244 2 222-2 200-6 181-9 163-9Z"/>
<text fill-opacity="0" xml:space="preserve" transform="matrix(1 0 -0 1 772.4676 51.04242)" font-size="34" font-family="LiberationSerif"><tspan y="0" x="125.59601">t</tspan></text>
<path transform="matrix(.034,0,0,-.034,907.5156,51.04242)" d="M97-215C71-215 46-212 22-206V-107H45L61-154C71-161 85-165 103-165 119-165 135-160 149-150 163-140 177-126 189-107 201-87 216-53 234-4L59 425 12 437V459H225V437L153 424 277 103 397 425 325 437V459H496V437L448 427 269-28C247-81 229-119 213-143 197-167 180-185 162-197 143-209 121-215 97-215Z"/>
<text fill-opacity="0" xml:space="preserve" transform="matrix(1 0 -0 1 772.4676 51.04242)" font-size="34" font-family="LiberationSerif"><tspan y="0" x="135.048">y</tspan></text>
</svg>
